<mxfile host="Electron" modified="2023-05-13T11:44:39.682Z" agent="Mozilla/5.0 (Macintosh; Intel Mac OS X 10_15_7) AppleWebKit/537.36 (KHTML, like Gecko) draw.io/21.2.8 Chrome/112.0.5615.165 Electron/24.2.0 Safari/537.36" etag="Op9jSYNz4vgkXWRHd70q" version="21.2.8" type="device">
  <diagram name="Page-1" id="IX2sbBPFJrls7Xq33dwb">
    <mxGraphModel dx="825" dy="633" grid="1" gridSize="10" guides="1" tooltips="1" connect="1" arrows="1" fold="1" page="1" pageScale="1" pageWidth="827" pageHeight="1169" math="0" shadow="0">
      <root>
        <mxCell id="0" />
        <mxCell id="1" parent="0" />
        <mxCell id="jbtqDZHQ1y1ZXkg8tkZU-263" value="" style="group" vertex="1" connectable="0" parent="1">
          <mxGeometry x="20" y="40" width="360" height="160" as="geometry" />
        </mxCell>
        <mxCell id="jbtqDZHQ1y1ZXkg8tkZU-264" value="" style="html=1;verticalLabelPosition=bottom;align=center;labelBackgroundColor=#ffffff;verticalAlign=top;strokeWidth=2;strokeColor=#FF3333;shadow=0;dashed=0;shape=mxgraph.ios7.icons.data;" vertex="1" parent="jbtqDZHQ1y1ZXkg8tkZU-263">
          <mxGeometry width="360" height="160" as="geometry" />
        </mxCell>
        <mxCell id="jbtqDZHQ1y1ZXkg8tkZU-265" value="" style="rounded=0;whiteSpace=wrap;html=1;strokeColor=none;" vertex="1" parent="jbtqDZHQ1y1ZXkg8tkZU-263">
          <mxGeometry x="0.9000000000000001" y="55.38461538461537" width="358.61538461538464" height="67.6923076923077" as="geometry" />
        </mxCell>
        <mxCell id="jbtqDZHQ1y1ZXkg8tkZU-266" value="" style="rounded=1;whiteSpace=wrap;html=1;dashed=1;" vertex="1" parent="jbtqDZHQ1y1ZXkg8tkZU-263">
          <mxGeometry x="4.361538461538461" y="49.230769230769226" width="352.1769230769231" height="86.15384615384615" as="geometry" />
        </mxCell>
        <mxCell id="jbtqDZHQ1y1ZXkg8tkZU-267" value="INVENTORY" style="shape=table;startSize=30;container=1;collapsible=0;childLayout=tableLayout;strokeColor=default;fontSize=16;sketch=1;curveFitting=1;jiggle=2;fontFamily=Times New Roman;" vertex="1" parent="jbtqDZHQ1y1ZXkg8tkZU-263">
          <mxGeometry x="9" y="55.38461538461537" width="87.92307692307692" height="61.538461538461526" as="geometry" />
        </mxCell>
        <mxCell id="jbtqDZHQ1y1ZXkg8tkZU-268" value="" style="shape=tableRow;horizontal=0;startSize=0;swimlaneHead=0;swimlaneBody=0;strokeColor=inherit;top=0;left=0;bottom=0;right=0;collapsible=0;dropTarget=0;fillColor=none;points=[[0,0.5],[1,0.5]];portConstraint=eastwest;fontSize=16;" vertex="1" parent="jbtqDZHQ1y1ZXkg8tkZU-267">
          <mxGeometry y="30" width="87.92307692307692" height="10" as="geometry" />
        </mxCell>
        <mxCell id="jbtqDZHQ1y1ZXkg8tkZU-269" value="" style="shape=partialRectangle;html=1;whiteSpace=wrap;connectable=0;strokeColor=inherit;overflow=hidden;fillColor=none;top=0;left=0;bottom=0;right=0;pointerEvents=1;fontSize=16;" vertex="1" parent="jbtqDZHQ1y1ZXkg8tkZU-268">
          <mxGeometry width="29" height="10" as="geometry">
            <mxRectangle width="29" height="10" as="alternateBounds" />
          </mxGeometry>
        </mxCell>
        <mxCell id="jbtqDZHQ1y1ZXkg8tkZU-270" value="" style="shape=partialRectangle;html=1;whiteSpace=wrap;connectable=0;strokeColor=inherit;overflow=hidden;fillColor=none;top=0;left=0;bottom=0;right=0;pointerEvents=1;fontSize=16;" vertex="1" parent="jbtqDZHQ1y1ZXkg8tkZU-268">
          <mxGeometry x="29" width="30" height="10" as="geometry">
            <mxRectangle width="30" height="10" as="alternateBounds" />
          </mxGeometry>
        </mxCell>
        <mxCell id="jbtqDZHQ1y1ZXkg8tkZU-271" value="" style="shape=partialRectangle;html=1;whiteSpace=wrap;connectable=0;strokeColor=inherit;overflow=hidden;fillColor=none;top=0;left=0;bottom=0;right=0;pointerEvents=1;fontSize=16;" vertex="1" parent="jbtqDZHQ1y1ZXkg8tkZU-268">
          <mxGeometry x="59" width="29" height="10" as="geometry">
            <mxRectangle width="29" height="10" as="alternateBounds" />
          </mxGeometry>
        </mxCell>
        <mxCell id="jbtqDZHQ1y1ZXkg8tkZU-272" value="" style="shape=tableRow;horizontal=0;startSize=0;swimlaneHead=0;swimlaneBody=0;strokeColor=inherit;top=0;left=0;bottom=0;right=0;collapsible=0;dropTarget=0;fillColor=none;points=[[0,0.5],[1,0.5]];portConstraint=eastwest;fontSize=16;" vertex="1" parent="jbtqDZHQ1y1ZXkg8tkZU-267">
          <mxGeometry y="40" width="87.92307692307692" height="11" as="geometry" />
        </mxCell>
        <mxCell id="jbtqDZHQ1y1ZXkg8tkZU-273" value="" style="shape=partialRectangle;html=1;whiteSpace=wrap;connectable=0;strokeColor=inherit;overflow=hidden;fillColor=none;top=0;left=0;bottom=0;right=0;pointerEvents=1;fontSize=16;" vertex="1" parent="jbtqDZHQ1y1ZXkg8tkZU-272">
          <mxGeometry width="29" height="11" as="geometry">
            <mxRectangle width="29" height="11" as="alternateBounds" />
          </mxGeometry>
        </mxCell>
        <mxCell id="jbtqDZHQ1y1ZXkg8tkZU-274" value="" style="shape=partialRectangle;html=1;whiteSpace=wrap;connectable=0;strokeColor=inherit;overflow=hidden;fillColor=none;top=0;left=0;bottom=0;right=0;pointerEvents=1;fontSize=16;" vertex="1" parent="jbtqDZHQ1y1ZXkg8tkZU-272">
          <mxGeometry x="29" width="30" height="11" as="geometry">
            <mxRectangle width="30" height="11" as="alternateBounds" />
          </mxGeometry>
        </mxCell>
        <mxCell id="jbtqDZHQ1y1ZXkg8tkZU-275" value="" style="shape=partialRectangle;html=1;whiteSpace=wrap;connectable=0;strokeColor=inherit;overflow=hidden;fillColor=none;top=0;left=0;bottom=0;right=0;pointerEvents=1;fontSize=16;" vertex="1" parent="jbtqDZHQ1y1ZXkg8tkZU-272">
          <mxGeometry x="59" width="29" height="11" as="geometry">
            <mxRectangle width="29" height="11" as="alternateBounds" />
          </mxGeometry>
        </mxCell>
        <mxCell id="jbtqDZHQ1y1ZXkg8tkZU-276" value="" style="shape=tableRow;horizontal=0;startSize=0;swimlaneHead=0;swimlaneBody=0;strokeColor=inherit;top=0;left=0;bottom=0;right=0;collapsible=0;dropTarget=0;fillColor=none;points=[[0,0.5],[1,0.5]];portConstraint=eastwest;fontSize=16;" vertex="1" parent="jbtqDZHQ1y1ZXkg8tkZU-267">
          <mxGeometry y="51" width="87.92307692307692" height="11" as="geometry" />
        </mxCell>
        <mxCell id="jbtqDZHQ1y1ZXkg8tkZU-277" value="" style="shape=partialRectangle;html=1;whiteSpace=wrap;connectable=0;strokeColor=inherit;overflow=hidden;fillColor=none;top=0;left=0;bottom=0;right=0;pointerEvents=1;fontSize=16;" vertex="1" parent="jbtqDZHQ1y1ZXkg8tkZU-276">
          <mxGeometry width="29" height="11" as="geometry">
            <mxRectangle width="29" height="11" as="alternateBounds" />
          </mxGeometry>
        </mxCell>
        <mxCell id="jbtqDZHQ1y1ZXkg8tkZU-278" value="" style="shape=partialRectangle;html=1;whiteSpace=wrap;connectable=0;strokeColor=inherit;overflow=hidden;fillColor=none;top=0;left=0;bottom=0;right=0;pointerEvents=1;fontSize=16;" vertex="1" parent="jbtqDZHQ1y1ZXkg8tkZU-276">
          <mxGeometry x="29" width="30" height="11" as="geometry">
            <mxRectangle width="30" height="11" as="alternateBounds" />
          </mxGeometry>
        </mxCell>
        <mxCell id="jbtqDZHQ1y1ZXkg8tkZU-279" value="" style="shape=partialRectangle;html=1;whiteSpace=wrap;connectable=0;strokeColor=inherit;overflow=hidden;fillColor=none;top=0;left=0;bottom=0;right=0;pointerEvents=1;fontSize=16;" vertex="1" parent="jbtqDZHQ1y1ZXkg8tkZU-276">
          <mxGeometry x="59" width="29" height="11" as="geometry">
            <mxRectangle width="29" height="11" as="alternateBounds" />
          </mxGeometry>
        </mxCell>
        <mxCell id="jbtqDZHQ1y1ZXkg8tkZU-280" value="BREWING" style="shape=table;startSize=30;container=1;collapsible=0;childLayout=tableLayout;strokeColor=default;fontSize=16;sketch=1;curveFitting=1;jiggle=2;fontFamily=Times New Roman;" vertex="1" parent="jbtqDZHQ1y1ZXkg8tkZU-263">
          <mxGeometry x="136.03846153846155" y="55.38461538461537" width="87.92307692307692" height="61.538461538461526" as="geometry" />
        </mxCell>
        <mxCell id="jbtqDZHQ1y1ZXkg8tkZU-281" value="" style="shape=tableRow;horizontal=0;startSize=0;swimlaneHead=0;swimlaneBody=0;strokeColor=inherit;top=0;left=0;bottom=0;right=0;collapsible=0;dropTarget=0;fillColor=none;points=[[0,0.5],[1,0.5]];portConstraint=eastwest;fontSize=16;" vertex="1" parent="jbtqDZHQ1y1ZXkg8tkZU-280">
          <mxGeometry y="30" width="87.92307692307692" height="10" as="geometry" />
        </mxCell>
        <mxCell id="jbtqDZHQ1y1ZXkg8tkZU-282" value="" style="shape=partialRectangle;html=1;whiteSpace=wrap;connectable=0;strokeColor=inherit;overflow=hidden;fillColor=none;top=0;left=0;bottom=0;right=0;pointerEvents=1;fontSize=16;" vertex="1" parent="jbtqDZHQ1y1ZXkg8tkZU-281">
          <mxGeometry width="29" height="10" as="geometry">
            <mxRectangle width="29" height="10" as="alternateBounds" />
          </mxGeometry>
        </mxCell>
        <mxCell id="jbtqDZHQ1y1ZXkg8tkZU-283" value="" style="shape=partialRectangle;html=1;whiteSpace=wrap;connectable=0;strokeColor=inherit;overflow=hidden;fillColor=none;top=0;left=0;bottom=0;right=0;pointerEvents=1;fontSize=16;" vertex="1" parent="jbtqDZHQ1y1ZXkg8tkZU-281">
          <mxGeometry x="29" width="30" height="10" as="geometry">
            <mxRectangle width="30" height="10" as="alternateBounds" />
          </mxGeometry>
        </mxCell>
        <mxCell id="jbtqDZHQ1y1ZXkg8tkZU-284" value="" style="shape=partialRectangle;html=1;whiteSpace=wrap;connectable=0;strokeColor=inherit;overflow=hidden;fillColor=none;top=0;left=0;bottom=0;right=0;pointerEvents=1;fontSize=16;" vertex="1" parent="jbtqDZHQ1y1ZXkg8tkZU-281">
          <mxGeometry x="59" width="29" height="10" as="geometry">
            <mxRectangle width="29" height="10" as="alternateBounds" />
          </mxGeometry>
        </mxCell>
        <mxCell id="jbtqDZHQ1y1ZXkg8tkZU-285" value="" style="shape=tableRow;horizontal=0;startSize=0;swimlaneHead=0;swimlaneBody=0;strokeColor=inherit;top=0;left=0;bottom=0;right=0;collapsible=0;dropTarget=0;fillColor=none;points=[[0,0.5],[1,0.5]];portConstraint=eastwest;fontSize=16;" vertex="1" parent="jbtqDZHQ1y1ZXkg8tkZU-280">
          <mxGeometry y="40" width="87.92307692307692" height="11" as="geometry" />
        </mxCell>
        <mxCell id="jbtqDZHQ1y1ZXkg8tkZU-286" value="" style="shape=partialRectangle;html=1;whiteSpace=wrap;connectable=0;strokeColor=inherit;overflow=hidden;fillColor=none;top=0;left=0;bottom=0;right=0;pointerEvents=1;fontSize=16;" vertex="1" parent="jbtqDZHQ1y1ZXkg8tkZU-285">
          <mxGeometry width="29" height="11" as="geometry">
            <mxRectangle width="29" height="11" as="alternateBounds" />
          </mxGeometry>
        </mxCell>
        <mxCell id="jbtqDZHQ1y1ZXkg8tkZU-287" value="" style="shape=partialRectangle;html=1;whiteSpace=wrap;connectable=0;strokeColor=inherit;overflow=hidden;fillColor=none;top=0;left=0;bottom=0;right=0;pointerEvents=1;fontSize=16;" vertex="1" parent="jbtqDZHQ1y1ZXkg8tkZU-285">
          <mxGeometry x="29" width="30" height="11" as="geometry">
            <mxRectangle width="30" height="11" as="alternateBounds" />
          </mxGeometry>
        </mxCell>
        <mxCell id="jbtqDZHQ1y1ZXkg8tkZU-288" value="" style="shape=partialRectangle;html=1;whiteSpace=wrap;connectable=0;strokeColor=inherit;overflow=hidden;fillColor=none;top=0;left=0;bottom=0;right=0;pointerEvents=1;fontSize=16;" vertex="1" parent="jbtqDZHQ1y1ZXkg8tkZU-285">
          <mxGeometry x="59" width="29" height="11" as="geometry">
            <mxRectangle width="29" height="11" as="alternateBounds" />
          </mxGeometry>
        </mxCell>
        <mxCell id="jbtqDZHQ1y1ZXkg8tkZU-289" value="" style="shape=tableRow;horizontal=0;startSize=0;swimlaneHead=0;swimlaneBody=0;strokeColor=inherit;top=0;left=0;bottom=0;right=0;collapsible=0;dropTarget=0;fillColor=none;points=[[0,0.5],[1,0.5]];portConstraint=eastwest;fontSize=16;" vertex="1" parent="jbtqDZHQ1y1ZXkg8tkZU-280">
          <mxGeometry y="51" width="87.92307692307692" height="11" as="geometry" />
        </mxCell>
        <mxCell id="jbtqDZHQ1y1ZXkg8tkZU-290" value="" style="shape=partialRectangle;html=1;whiteSpace=wrap;connectable=0;strokeColor=inherit;overflow=hidden;fillColor=none;top=0;left=0;bottom=0;right=0;pointerEvents=1;fontSize=16;" vertex="1" parent="jbtqDZHQ1y1ZXkg8tkZU-289">
          <mxGeometry width="29" height="11" as="geometry">
            <mxRectangle width="29" height="11" as="alternateBounds" />
          </mxGeometry>
        </mxCell>
        <mxCell id="jbtqDZHQ1y1ZXkg8tkZU-291" value="" style="shape=partialRectangle;html=1;whiteSpace=wrap;connectable=0;strokeColor=inherit;overflow=hidden;fillColor=none;top=0;left=0;bottom=0;right=0;pointerEvents=1;fontSize=16;" vertex="1" parent="jbtqDZHQ1y1ZXkg8tkZU-289">
          <mxGeometry x="29" width="30" height="11" as="geometry">
            <mxRectangle width="30" height="11" as="alternateBounds" />
          </mxGeometry>
        </mxCell>
        <mxCell id="jbtqDZHQ1y1ZXkg8tkZU-292" value="" style="shape=partialRectangle;html=1;whiteSpace=wrap;connectable=0;strokeColor=inherit;overflow=hidden;fillColor=none;top=0;left=0;bottom=0;right=0;pointerEvents=1;fontSize=16;" vertex="1" parent="jbtqDZHQ1y1ZXkg8tkZU-289">
          <mxGeometry x="59" width="29" height="11" as="geometry">
            <mxRectangle width="29" height="11" as="alternateBounds" />
          </mxGeometry>
        </mxCell>
        <mxCell id="jbtqDZHQ1y1ZXkg8tkZU-293" style="edgeStyle=orthogonalEdgeStyle;rounded=1;orthogonalLoop=1;jettySize=auto;html=1;entryX=0.504;entryY=0.957;entryDx=0;entryDy=0;entryPerimeter=0;exitX=0.543;exitY=1.043;exitDx=0;exitDy=0;exitPerimeter=0;sketch=1;curveFitting=1;jiggle=2;startArrow=classic;startFill=1;fillColor=#dae8fc;strokeColor=#6c8ebf;" edge="1" parent="jbtqDZHQ1y1ZXkg8tkZU-263" source="jbtqDZHQ1y1ZXkg8tkZU-303" target="jbtqDZHQ1y1ZXkg8tkZU-276">
          <mxGeometry relative="1" as="geometry">
            <Array as="points">
              <mxPoint x="311" y="130" />
              <mxPoint x="53" y="130" />
            </Array>
          </mxGeometry>
        </mxCell>
        <mxCell id="jbtqDZHQ1y1ZXkg8tkZU-294" value="STOCK" style="shape=table;startSize=30;container=1;collapsible=0;childLayout=tableLayout;strokeColor=default;fontSize=16;sketch=1;curveFitting=1;jiggle=2;fontFamily=Times New Roman;" vertex="1" parent="jbtqDZHQ1y1ZXkg8tkZU-263">
          <mxGeometry x="263.0769230769231" y="55.38461538461537" width="87.92307692307692" height="61.538461538461526" as="geometry" />
        </mxCell>
        <mxCell id="jbtqDZHQ1y1ZXkg8tkZU-295" value="" style="shape=tableRow;horizontal=0;startSize=0;swimlaneHead=0;swimlaneBody=0;strokeColor=inherit;top=0;left=0;bottom=0;right=0;collapsible=0;dropTarget=0;fillColor=none;points=[[0,0.5],[1,0.5]];portConstraint=eastwest;fontSize=16;" vertex="1" parent="jbtqDZHQ1y1ZXkg8tkZU-294">
          <mxGeometry y="30" width="87.92307692307692" height="10" as="geometry" />
        </mxCell>
        <mxCell id="jbtqDZHQ1y1ZXkg8tkZU-296" value="" style="shape=partialRectangle;html=1;whiteSpace=wrap;connectable=0;strokeColor=inherit;overflow=hidden;fillColor=none;top=0;left=0;bottom=0;right=0;pointerEvents=1;fontSize=16;" vertex="1" parent="jbtqDZHQ1y1ZXkg8tkZU-295">
          <mxGeometry width="29" height="10" as="geometry">
            <mxRectangle width="29" height="10" as="alternateBounds" />
          </mxGeometry>
        </mxCell>
        <mxCell id="jbtqDZHQ1y1ZXkg8tkZU-297" value="" style="shape=partialRectangle;html=1;whiteSpace=wrap;connectable=0;strokeColor=inherit;overflow=hidden;fillColor=none;top=0;left=0;bottom=0;right=0;pointerEvents=1;fontSize=16;" vertex="1" parent="jbtqDZHQ1y1ZXkg8tkZU-295">
          <mxGeometry x="29" width="30" height="10" as="geometry">
            <mxRectangle width="30" height="10" as="alternateBounds" />
          </mxGeometry>
        </mxCell>
        <mxCell id="jbtqDZHQ1y1ZXkg8tkZU-298" value="" style="shape=partialRectangle;html=1;whiteSpace=wrap;connectable=0;strokeColor=inherit;overflow=hidden;fillColor=none;top=0;left=0;bottom=0;right=0;pointerEvents=1;fontSize=16;" vertex="1" parent="jbtqDZHQ1y1ZXkg8tkZU-295">
          <mxGeometry x="59" width="29" height="10" as="geometry">
            <mxRectangle width="29" height="10" as="alternateBounds" />
          </mxGeometry>
        </mxCell>
        <mxCell id="jbtqDZHQ1y1ZXkg8tkZU-299" value="" style="shape=tableRow;horizontal=0;startSize=0;swimlaneHead=0;swimlaneBody=0;strokeColor=inherit;top=0;left=0;bottom=0;right=0;collapsible=0;dropTarget=0;fillColor=none;points=[[0,0.5],[1,0.5]];portConstraint=eastwest;fontSize=16;" vertex="1" parent="jbtqDZHQ1y1ZXkg8tkZU-294">
          <mxGeometry y="40" width="87.92307692307692" height="11" as="geometry" />
        </mxCell>
        <mxCell id="jbtqDZHQ1y1ZXkg8tkZU-300" value="" style="shape=partialRectangle;html=1;whiteSpace=wrap;connectable=0;strokeColor=inherit;overflow=hidden;fillColor=none;top=0;left=0;bottom=0;right=0;pointerEvents=1;fontSize=16;" vertex="1" parent="jbtqDZHQ1y1ZXkg8tkZU-299">
          <mxGeometry width="29" height="11" as="geometry">
            <mxRectangle width="29" height="11" as="alternateBounds" />
          </mxGeometry>
        </mxCell>
        <mxCell id="jbtqDZHQ1y1ZXkg8tkZU-301" value="" style="shape=partialRectangle;html=1;whiteSpace=wrap;connectable=0;strokeColor=inherit;overflow=hidden;fillColor=none;top=0;left=0;bottom=0;right=0;pointerEvents=1;fontSize=16;" vertex="1" parent="jbtqDZHQ1y1ZXkg8tkZU-299">
          <mxGeometry x="29" width="30" height="11" as="geometry">
            <mxRectangle width="30" height="11" as="alternateBounds" />
          </mxGeometry>
        </mxCell>
        <mxCell id="jbtqDZHQ1y1ZXkg8tkZU-302" value="" style="shape=partialRectangle;html=1;whiteSpace=wrap;connectable=0;strokeColor=inherit;overflow=hidden;fillColor=none;top=0;left=0;bottom=0;right=0;pointerEvents=1;fontSize=16;" vertex="1" parent="jbtqDZHQ1y1ZXkg8tkZU-299">
          <mxGeometry x="59" width="29" height="11" as="geometry">
            <mxRectangle width="29" height="11" as="alternateBounds" />
          </mxGeometry>
        </mxCell>
        <mxCell id="jbtqDZHQ1y1ZXkg8tkZU-303" value="" style="shape=tableRow;horizontal=0;startSize=0;swimlaneHead=0;swimlaneBody=0;strokeColor=inherit;top=0;left=0;bottom=0;right=0;collapsible=0;dropTarget=0;fillColor=none;points=[[0,0.5],[1,0.5]];portConstraint=eastwest;fontSize=16;" vertex="1" parent="jbtqDZHQ1y1ZXkg8tkZU-294">
          <mxGeometry y="51" width="87.92307692307692" height="11" as="geometry" />
        </mxCell>
        <mxCell id="jbtqDZHQ1y1ZXkg8tkZU-304" value="" style="shape=partialRectangle;html=1;whiteSpace=wrap;connectable=0;strokeColor=inherit;overflow=hidden;fillColor=none;top=0;left=0;bottom=0;right=0;pointerEvents=1;fontSize=16;" vertex="1" parent="jbtqDZHQ1y1ZXkg8tkZU-303">
          <mxGeometry width="29" height="11" as="geometry">
            <mxRectangle width="29" height="11" as="alternateBounds" />
          </mxGeometry>
        </mxCell>
        <mxCell id="jbtqDZHQ1y1ZXkg8tkZU-305" value="" style="shape=partialRectangle;html=1;whiteSpace=wrap;connectable=0;strokeColor=inherit;overflow=hidden;fillColor=none;top=0;left=0;bottom=0;right=0;pointerEvents=1;fontSize=16;" vertex="1" parent="jbtqDZHQ1y1ZXkg8tkZU-303">
          <mxGeometry x="29" width="30" height="11" as="geometry">
            <mxRectangle width="30" height="11" as="alternateBounds" />
          </mxGeometry>
        </mxCell>
        <mxCell id="jbtqDZHQ1y1ZXkg8tkZU-306" value="" style="shape=partialRectangle;html=1;whiteSpace=wrap;connectable=0;strokeColor=inherit;overflow=hidden;fillColor=none;top=0;left=0;bottom=0;right=0;pointerEvents=1;fontSize=16;" vertex="1" parent="jbtqDZHQ1y1ZXkg8tkZU-303">
          <mxGeometry x="59" width="29" height="11" as="geometry">
            <mxRectangle width="29" height="11" as="alternateBounds" />
          </mxGeometry>
        </mxCell>
        <mxCell id="jbtqDZHQ1y1ZXkg8tkZU-307" style="edgeStyle=orthogonalEdgeStyle;orthogonalLoop=1;jettySize=auto;html=1;exitX=1;exitY=0.5;exitDx=0;exitDy=0;entryX=0;entryY=0.5;entryDx=0;entryDy=0;jumpStyle=none;sketch=1;curveFitting=1;jiggle=2;strokeColor=#6c8ebf;curved=1;startArrow=classic;startFill=1;fillColor=#dae8fc;" edge="1" parent="jbtqDZHQ1y1ZXkg8tkZU-263" source="jbtqDZHQ1y1ZXkg8tkZU-285" target="jbtqDZHQ1y1ZXkg8tkZU-299">
          <mxGeometry relative="1" as="geometry" />
        </mxCell>
        <mxCell id="jbtqDZHQ1y1ZXkg8tkZU-308" style="edgeStyle=orthogonalEdgeStyle;rounded=1;orthogonalLoop=1;jettySize=auto;html=1;exitX=1;exitY=0.5;exitDx=0;exitDy=0;entryX=0;entryY=0.5;entryDx=0;entryDy=0;sketch=1;curveFitting=1;jiggle=2;startArrow=classic;startFill=1;fillColor=#dae8fc;strokeColor=#6c8ebf;" edge="1" parent="jbtqDZHQ1y1ZXkg8tkZU-263" source="jbtqDZHQ1y1ZXkg8tkZU-272" target="jbtqDZHQ1y1ZXkg8tkZU-285">
          <mxGeometry relative="1" as="geometry" />
        </mxCell>
        <mxCell id="jbtqDZHQ1y1ZXkg8tkZU-309" value="" style="group;fontFamily=Times New Roman;" vertex="1" connectable="0" parent="1">
          <mxGeometry x="450" y="40" width="360" height="160" as="geometry" />
        </mxCell>
        <mxCell id="jbtqDZHQ1y1ZXkg8tkZU-310" value="" style="html=1;verticalLabelPosition=bottom;align=center;labelBackgroundColor=#ffffff;verticalAlign=top;strokeWidth=2;strokeColor=#FF3333;shadow=0;dashed=0;shape=mxgraph.ios7.icons.data;" vertex="1" parent="jbtqDZHQ1y1ZXkg8tkZU-309">
          <mxGeometry width="359.99999999999994" height="160" as="geometry" />
        </mxCell>
        <mxCell id="jbtqDZHQ1y1ZXkg8tkZU-311" value="" style="rounded=0;whiteSpace=wrap;html=1;strokeColor=none;" vertex="1" parent="jbtqDZHQ1y1ZXkg8tkZU-309">
          <mxGeometry x="0.9" y="55.38461538461539" width="358.61538461538464" height="67.6923076923077" as="geometry" />
        </mxCell>
        <mxCell id="jbtqDZHQ1y1ZXkg8tkZU-312" style="edgeStyle=orthogonalEdgeStyle;rounded=0;orthogonalLoop=1;jettySize=auto;html=1;exitX=1;exitY=0.5;exitDx=0;exitDy=0;entryX=0;entryY=0.5;entryDx=0;entryDy=0;startArrow=classic;startFill=1;sketch=1;curveFitting=1;jiggle=2;strokeColor=#6c8ebf;fillColor=#dae8fc;" edge="1" parent="jbtqDZHQ1y1ZXkg8tkZU-309" source="jbtqDZHQ1y1ZXkg8tkZU-313" target="jbtqDZHQ1y1ZXkg8tkZU-315">
          <mxGeometry relative="1" as="geometry" />
        </mxCell>
        <mxCell id="jbtqDZHQ1y1ZXkg8tkZU-313" value="" style="rounded=1;whiteSpace=wrap;html=1;dashed=1;" vertex="1" parent="jbtqDZHQ1y1ZXkg8tkZU-309">
          <mxGeometry x="13.846153846153845" y="49.230769230769226" width="96.0230769230769" height="86.15384615384615" as="geometry" />
        </mxCell>
        <mxCell id="jbtqDZHQ1y1ZXkg8tkZU-314" style="edgeStyle=orthogonalEdgeStyle;rounded=0;orthogonalLoop=1;jettySize=auto;html=1;exitX=1;exitY=0.5;exitDx=0;exitDy=0;entryX=0;entryY=0.5;entryDx=0;entryDy=0;startArrow=classic;startFill=1;sketch=1;curveFitting=1;jiggle=2;fillColor=#1ba1e2;strokeColor=#006EAF;" edge="1" parent="jbtqDZHQ1y1ZXkg8tkZU-309" source="jbtqDZHQ1y1ZXkg8tkZU-315" target="jbtqDZHQ1y1ZXkg8tkZU-317">
          <mxGeometry relative="1" as="geometry" />
        </mxCell>
        <mxCell id="jbtqDZHQ1y1ZXkg8tkZU-315" value="" style="rounded=1;whiteSpace=wrap;html=1;dashed=1;" vertex="1" parent="jbtqDZHQ1y1ZXkg8tkZU-309">
          <mxGeometry x="131.98846153846154" y="49.230769230769226" width="96.0230769230769" height="86.15384615384615" as="geometry" />
        </mxCell>
        <mxCell id="jbtqDZHQ1y1ZXkg8tkZU-316" style="edgeStyle=orthogonalEdgeStyle;rounded=1;orthogonalLoop=1;jettySize=auto;html=1;exitX=0.5;exitY=1;exitDx=0;exitDy=0;entryX=0.173;entryY=0.847;entryDx=0;entryDy=0;entryPerimeter=0;startArrow=classic;startFill=1;fillColor=#1ba1e2;strokeColor=#006EAF;sketch=1;curveFitting=1;jiggle=2;" edge="1" parent="jbtqDZHQ1y1ZXkg8tkZU-309" source="jbtqDZHQ1y1ZXkg8tkZU-317" target="jbtqDZHQ1y1ZXkg8tkZU-310">
          <mxGeometry relative="1" as="geometry">
            <Array as="points">
              <mxPoint x="297" y="150" />
              <mxPoint x="62" y="150" />
            </Array>
          </mxGeometry>
        </mxCell>
        <mxCell id="jbtqDZHQ1y1ZXkg8tkZU-317" value="" style="rounded=1;whiteSpace=wrap;html=1;dashed=1;" vertex="1" parent="jbtqDZHQ1y1ZXkg8tkZU-309">
          <mxGeometry x="249.23076923076917" y="49.230769230769226" width="96.0230769230769" height="86.15384615384615" as="geometry" />
        </mxCell>
        <mxCell id="jbtqDZHQ1y1ZXkg8tkZU-318" value="HOPS" style="shape=table;startSize=20;container=1;collapsible=0;childLayout=tableLayout;strokeColor=default;fontSize=8;sketch=1;curveFitting=1;jiggle=2;fontFamily=Times New Roman;" vertex="1" parent="jbtqDZHQ1y1ZXkg8tkZU-309">
          <mxGeometry x="17.896153846153844" y="67.6923076923077" width="30.565384615384612" height="24.615384615384613" as="geometry" />
        </mxCell>
        <mxCell id="jbtqDZHQ1y1ZXkg8tkZU-319" value="" style="shape=tableRow;horizontal=0;startSize=0;swimlaneHead=0;swimlaneBody=0;strokeColor=inherit;top=0;left=0;bottom=0;right=0;collapsible=0;dropTarget=0;fillColor=none;points=[[0,0.5],[1,0.5]];portConstraint=eastwest;fontSize=16;" vertex="1" parent="jbtqDZHQ1y1ZXkg8tkZU-318">
          <mxGeometry y="20" width="30.565384615384612" height="2" as="geometry" />
        </mxCell>
        <mxCell id="jbtqDZHQ1y1ZXkg8tkZU-320" value="" style="shape=partialRectangle;html=1;whiteSpace=wrap;connectable=0;strokeColor=inherit;overflow=hidden;fillColor=none;top=0;left=0;bottom=0;right=0;pointerEvents=1;fontSize=16;" vertex="1" parent="jbtqDZHQ1y1ZXkg8tkZU-319">
          <mxGeometry width="11" height="2" as="geometry">
            <mxRectangle width="11" height="2" as="alternateBounds" />
          </mxGeometry>
        </mxCell>
        <mxCell id="jbtqDZHQ1y1ZXkg8tkZU-321" value="" style="shape=partialRectangle;html=1;whiteSpace=wrap;connectable=0;strokeColor=inherit;overflow=hidden;fillColor=none;top=0;left=0;bottom=0;right=0;pointerEvents=1;fontSize=16;" vertex="1" parent="jbtqDZHQ1y1ZXkg8tkZU-319">
          <mxGeometry x="11" width="9" height="2" as="geometry">
            <mxRectangle width="9" height="2" as="alternateBounds" />
          </mxGeometry>
        </mxCell>
        <mxCell id="jbtqDZHQ1y1ZXkg8tkZU-322" value="" style="shape=partialRectangle;html=1;whiteSpace=wrap;connectable=0;strokeColor=inherit;overflow=hidden;fillColor=none;top=0;left=0;bottom=0;right=0;pointerEvents=1;fontSize=16;" vertex="1" parent="jbtqDZHQ1y1ZXkg8tkZU-319">
          <mxGeometry x="20" width="11" height="2" as="geometry">
            <mxRectangle width="11" height="2" as="alternateBounds" />
          </mxGeometry>
        </mxCell>
        <mxCell id="jbtqDZHQ1y1ZXkg8tkZU-323" value="" style="shape=tableRow;horizontal=0;startSize=0;swimlaneHead=0;swimlaneBody=0;strokeColor=inherit;top=0;left=0;bottom=0;right=0;collapsible=0;dropTarget=0;fillColor=none;points=[[0,0.5],[1,0.5]];portConstraint=eastwest;fontSize=16;" vertex="1" parent="jbtqDZHQ1y1ZXkg8tkZU-318">
          <mxGeometry y="22" width="30.565384615384612" height="1" as="geometry" />
        </mxCell>
        <mxCell id="jbtqDZHQ1y1ZXkg8tkZU-324" value="" style="shape=partialRectangle;html=1;whiteSpace=wrap;connectable=0;strokeColor=inherit;overflow=hidden;fillColor=none;top=0;left=0;bottom=0;right=0;pointerEvents=1;fontSize=16;" vertex="1" parent="jbtqDZHQ1y1ZXkg8tkZU-323">
          <mxGeometry width="11" height="1" as="geometry">
            <mxRectangle width="11" height="1" as="alternateBounds" />
          </mxGeometry>
        </mxCell>
        <mxCell id="jbtqDZHQ1y1ZXkg8tkZU-325" value="" style="shape=partialRectangle;html=1;whiteSpace=wrap;connectable=0;strokeColor=inherit;overflow=hidden;fillColor=none;top=0;left=0;bottom=0;right=0;pointerEvents=1;fontSize=16;" vertex="1" parent="jbtqDZHQ1y1ZXkg8tkZU-323">
          <mxGeometry x="11" width="9" height="1" as="geometry">
            <mxRectangle width="9" height="1" as="alternateBounds" />
          </mxGeometry>
        </mxCell>
        <mxCell id="jbtqDZHQ1y1ZXkg8tkZU-326" value="" style="shape=partialRectangle;html=1;whiteSpace=wrap;connectable=0;strokeColor=inherit;overflow=hidden;fillColor=none;top=0;left=0;bottom=0;right=0;pointerEvents=1;fontSize=16;" vertex="1" parent="jbtqDZHQ1y1ZXkg8tkZU-323">
          <mxGeometry x="20" width="11" height="1" as="geometry">
            <mxRectangle width="11" height="1" as="alternateBounds" />
          </mxGeometry>
        </mxCell>
        <mxCell id="jbtqDZHQ1y1ZXkg8tkZU-327" value="" style="shape=tableRow;horizontal=0;startSize=0;swimlaneHead=0;swimlaneBody=0;strokeColor=inherit;top=0;left=0;bottom=0;right=0;collapsible=0;dropTarget=0;fillColor=none;points=[[0,0.5],[1,0.5]];portConstraint=eastwest;fontSize=16;" vertex="1" parent="jbtqDZHQ1y1ZXkg8tkZU-318">
          <mxGeometry y="23" width="30.565384615384612" height="2" as="geometry" />
        </mxCell>
        <mxCell id="jbtqDZHQ1y1ZXkg8tkZU-328" value="" style="shape=partialRectangle;html=1;whiteSpace=wrap;connectable=0;strokeColor=inherit;overflow=hidden;fillColor=none;top=0;left=0;bottom=0;right=0;pointerEvents=1;fontSize=16;" vertex="1" parent="jbtqDZHQ1y1ZXkg8tkZU-327">
          <mxGeometry width="11" height="2" as="geometry">
            <mxRectangle width="11" height="2" as="alternateBounds" />
          </mxGeometry>
        </mxCell>
        <mxCell id="jbtqDZHQ1y1ZXkg8tkZU-329" value="" style="shape=partialRectangle;html=1;whiteSpace=wrap;connectable=0;strokeColor=inherit;overflow=hidden;fillColor=none;top=0;left=0;bottom=0;right=0;pointerEvents=1;fontSize=16;" vertex="1" parent="jbtqDZHQ1y1ZXkg8tkZU-327">
          <mxGeometry x="11" width="9" height="2" as="geometry">
            <mxRectangle width="9" height="2" as="alternateBounds" />
          </mxGeometry>
        </mxCell>
        <mxCell id="jbtqDZHQ1y1ZXkg8tkZU-330" value="" style="shape=partialRectangle;html=1;whiteSpace=wrap;connectable=0;strokeColor=inherit;overflow=hidden;fillColor=none;top=0;left=0;bottom=0;right=0;pointerEvents=1;fontSize=16;" vertex="1" parent="jbtqDZHQ1y1ZXkg8tkZU-327">
          <mxGeometry x="20" width="11" height="2" as="geometry">
            <mxRectangle width="11" height="2" as="alternateBounds" />
          </mxGeometry>
        </mxCell>
        <mxCell id="jbtqDZHQ1y1ZXkg8tkZU-331" value="WATER" style="shape=table;startSize=20;container=1;collapsible=0;childLayout=tableLayout;strokeColor=default;fontSize=8;sketch=1;curveFitting=1;jiggle=2;fontFamily=Times New Roman;verticalAlign=middle;" vertex="1" parent="jbtqDZHQ1y1ZXkg8tkZU-309">
          <mxGeometry x="31.742307692307694" y="98.46153846153845" width="30.565384615384612" height="24.615384615384613" as="geometry" />
        </mxCell>
        <mxCell id="jbtqDZHQ1y1ZXkg8tkZU-332" value="" style="shape=tableRow;horizontal=0;startSize=0;swimlaneHead=0;swimlaneBody=0;strokeColor=inherit;top=0;left=0;bottom=0;right=0;collapsible=0;dropTarget=0;fillColor=none;points=[[0,0.5],[1,0.5]];portConstraint=eastwest;fontSize=16;" vertex="1" parent="jbtqDZHQ1y1ZXkg8tkZU-331">
          <mxGeometry y="20" width="30.565384615384612" height="2" as="geometry" />
        </mxCell>
        <mxCell id="jbtqDZHQ1y1ZXkg8tkZU-333" value="" style="shape=partialRectangle;html=1;whiteSpace=wrap;connectable=0;strokeColor=inherit;overflow=hidden;fillColor=none;top=0;left=0;bottom=0;right=0;pointerEvents=1;fontSize=16;" vertex="1" parent="jbtqDZHQ1y1ZXkg8tkZU-332">
          <mxGeometry width="11" height="2" as="geometry">
            <mxRectangle width="11" height="2" as="alternateBounds" />
          </mxGeometry>
        </mxCell>
        <mxCell id="jbtqDZHQ1y1ZXkg8tkZU-334" value="" style="shape=partialRectangle;html=1;whiteSpace=wrap;connectable=0;strokeColor=inherit;overflow=hidden;fillColor=none;top=0;left=0;bottom=0;right=0;pointerEvents=1;fontSize=16;" vertex="1" parent="jbtqDZHQ1y1ZXkg8tkZU-332">
          <mxGeometry x="11" width="9" height="2" as="geometry">
            <mxRectangle width="9" height="2" as="alternateBounds" />
          </mxGeometry>
        </mxCell>
        <mxCell id="jbtqDZHQ1y1ZXkg8tkZU-335" value="" style="shape=partialRectangle;html=1;whiteSpace=wrap;connectable=0;strokeColor=inherit;overflow=hidden;fillColor=none;top=0;left=0;bottom=0;right=0;pointerEvents=1;fontSize=16;" vertex="1" parent="jbtqDZHQ1y1ZXkg8tkZU-332">
          <mxGeometry x="20" width="11" height="2" as="geometry">
            <mxRectangle width="11" height="2" as="alternateBounds" />
          </mxGeometry>
        </mxCell>
        <mxCell id="jbtqDZHQ1y1ZXkg8tkZU-336" value="" style="shape=tableRow;horizontal=0;startSize=0;swimlaneHead=0;swimlaneBody=0;strokeColor=inherit;top=0;left=0;bottom=0;right=0;collapsible=0;dropTarget=0;fillColor=none;points=[[0,0.5],[1,0.5]];portConstraint=eastwest;fontSize=16;" vertex="1" parent="jbtqDZHQ1y1ZXkg8tkZU-331">
          <mxGeometry y="22" width="30.565384615384612" height="1" as="geometry" />
        </mxCell>
        <mxCell id="jbtqDZHQ1y1ZXkg8tkZU-337" value="" style="shape=partialRectangle;html=1;whiteSpace=wrap;connectable=0;strokeColor=inherit;overflow=hidden;fillColor=none;top=0;left=0;bottom=0;right=0;pointerEvents=1;fontSize=16;" vertex="1" parent="jbtqDZHQ1y1ZXkg8tkZU-336">
          <mxGeometry width="11" height="1" as="geometry">
            <mxRectangle width="11" height="1" as="alternateBounds" />
          </mxGeometry>
        </mxCell>
        <mxCell id="jbtqDZHQ1y1ZXkg8tkZU-338" value="" style="shape=partialRectangle;html=1;whiteSpace=wrap;connectable=0;strokeColor=inherit;overflow=hidden;fillColor=none;top=0;left=0;bottom=0;right=0;pointerEvents=1;fontSize=16;" vertex="1" parent="jbtqDZHQ1y1ZXkg8tkZU-336">
          <mxGeometry x="11" width="9" height="1" as="geometry">
            <mxRectangle width="9" height="1" as="alternateBounds" />
          </mxGeometry>
        </mxCell>
        <mxCell id="jbtqDZHQ1y1ZXkg8tkZU-339" value="" style="shape=partialRectangle;html=1;whiteSpace=wrap;connectable=0;strokeColor=inherit;overflow=hidden;fillColor=none;top=0;left=0;bottom=0;right=0;pointerEvents=1;fontSize=16;" vertex="1" parent="jbtqDZHQ1y1ZXkg8tkZU-336">
          <mxGeometry x="20" width="11" height="1" as="geometry">
            <mxRectangle width="11" height="1" as="alternateBounds" />
          </mxGeometry>
        </mxCell>
        <mxCell id="jbtqDZHQ1y1ZXkg8tkZU-340" value="" style="shape=tableRow;horizontal=0;startSize=0;swimlaneHead=0;swimlaneBody=0;strokeColor=inherit;top=0;left=0;bottom=0;right=0;collapsible=0;dropTarget=0;fillColor=none;points=[[0,0.5],[1,0.5]];portConstraint=eastwest;fontSize=16;" vertex="1" parent="jbtqDZHQ1y1ZXkg8tkZU-331">
          <mxGeometry y="23" width="30.565384615384612" height="2" as="geometry" />
        </mxCell>
        <mxCell id="jbtqDZHQ1y1ZXkg8tkZU-341" value="" style="shape=partialRectangle;html=1;whiteSpace=wrap;connectable=0;strokeColor=inherit;overflow=hidden;fillColor=none;top=0;left=0;bottom=0;right=0;pointerEvents=1;fontSize=16;" vertex="1" parent="jbtqDZHQ1y1ZXkg8tkZU-340">
          <mxGeometry width="11" height="2" as="geometry">
            <mxRectangle width="11" height="2" as="alternateBounds" />
          </mxGeometry>
        </mxCell>
        <mxCell id="jbtqDZHQ1y1ZXkg8tkZU-342" value="" style="shape=partialRectangle;html=1;whiteSpace=wrap;connectable=0;strokeColor=inherit;overflow=hidden;fillColor=none;top=0;left=0;bottom=0;right=0;pointerEvents=1;fontSize=16;" vertex="1" parent="jbtqDZHQ1y1ZXkg8tkZU-340">
          <mxGeometry x="11" width="9" height="2" as="geometry">
            <mxRectangle width="9" height="2" as="alternateBounds" />
          </mxGeometry>
        </mxCell>
        <mxCell id="jbtqDZHQ1y1ZXkg8tkZU-343" value="" style="shape=partialRectangle;html=1;whiteSpace=wrap;connectable=0;strokeColor=inherit;overflow=hidden;fillColor=none;top=0;left=0;bottom=0;right=0;pointerEvents=1;fontSize=16;" vertex="1" parent="jbtqDZHQ1y1ZXkg8tkZU-340">
          <mxGeometry x="20" width="11" height="2" as="geometry">
            <mxRectangle width="11" height="2" as="alternateBounds" />
          </mxGeometry>
        </mxCell>
        <mxCell id="jbtqDZHQ1y1ZXkg8tkZU-344" value="MALT" style="shape=table;startSize=20;container=1;collapsible=0;childLayout=tableLayout;strokeColor=default;fontSize=8;sketch=1;curveFitting=1;jiggle=2;fontFamily=Times New Roman;" vertex="1" parent="jbtqDZHQ1y1ZXkg8tkZU-309">
          <mxGeometry x="62.30769230769229" y="67.6923076923077" width="30.565384615384612" height="24.615384615384613" as="geometry" />
        </mxCell>
        <mxCell id="jbtqDZHQ1y1ZXkg8tkZU-345" value="" style="shape=tableRow;horizontal=0;startSize=0;swimlaneHead=0;swimlaneBody=0;strokeColor=inherit;top=0;left=0;bottom=0;right=0;collapsible=0;dropTarget=0;fillColor=none;points=[[0,0.5],[1,0.5]];portConstraint=eastwest;fontSize=16;" vertex="1" parent="jbtqDZHQ1y1ZXkg8tkZU-344">
          <mxGeometry y="20" width="30.565384615384612" height="2" as="geometry" />
        </mxCell>
        <mxCell id="jbtqDZHQ1y1ZXkg8tkZU-346" value="" style="shape=partialRectangle;html=1;whiteSpace=wrap;connectable=0;strokeColor=inherit;overflow=hidden;fillColor=none;top=0;left=0;bottom=0;right=0;pointerEvents=1;fontSize=16;" vertex="1" parent="jbtqDZHQ1y1ZXkg8tkZU-345">
          <mxGeometry width="11" height="2" as="geometry">
            <mxRectangle width="11" height="2" as="alternateBounds" />
          </mxGeometry>
        </mxCell>
        <mxCell id="jbtqDZHQ1y1ZXkg8tkZU-347" value="" style="shape=partialRectangle;html=1;whiteSpace=wrap;connectable=0;strokeColor=inherit;overflow=hidden;fillColor=none;top=0;left=0;bottom=0;right=0;pointerEvents=1;fontSize=16;" vertex="1" parent="jbtqDZHQ1y1ZXkg8tkZU-345">
          <mxGeometry x="11" width="9" height="2" as="geometry">
            <mxRectangle width="9" height="2" as="alternateBounds" />
          </mxGeometry>
        </mxCell>
        <mxCell id="jbtqDZHQ1y1ZXkg8tkZU-348" value="" style="shape=partialRectangle;html=1;whiteSpace=wrap;connectable=0;strokeColor=inherit;overflow=hidden;fillColor=none;top=0;left=0;bottom=0;right=0;pointerEvents=1;fontSize=16;" vertex="1" parent="jbtqDZHQ1y1ZXkg8tkZU-345">
          <mxGeometry x="20" width="11" height="2" as="geometry">
            <mxRectangle width="11" height="2" as="alternateBounds" />
          </mxGeometry>
        </mxCell>
        <mxCell id="jbtqDZHQ1y1ZXkg8tkZU-349" value="" style="shape=tableRow;horizontal=0;startSize=0;swimlaneHead=0;swimlaneBody=0;strokeColor=inherit;top=0;left=0;bottom=0;right=0;collapsible=0;dropTarget=0;fillColor=none;points=[[0,0.5],[1,0.5]];portConstraint=eastwest;fontSize=16;" vertex="1" parent="jbtqDZHQ1y1ZXkg8tkZU-344">
          <mxGeometry y="22" width="30.565384615384612" height="1" as="geometry" />
        </mxCell>
        <mxCell id="jbtqDZHQ1y1ZXkg8tkZU-350" value="" style="shape=partialRectangle;html=1;whiteSpace=wrap;connectable=0;strokeColor=inherit;overflow=hidden;fillColor=none;top=0;left=0;bottom=0;right=0;pointerEvents=1;fontSize=16;" vertex="1" parent="jbtqDZHQ1y1ZXkg8tkZU-349">
          <mxGeometry width="11" height="1" as="geometry">
            <mxRectangle width="11" height="1" as="alternateBounds" />
          </mxGeometry>
        </mxCell>
        <mxCell id="jbtqDZHQ1y1ZXkg8tkZU-351" value="" style="shape=partialRectangle;html=1;whiteSpace=wrap;connectable=0;strokeColor=inherit;overflow=hidden;fillColor=none;top=0;left=0;bottom=0;right=0;pointerEvents=1;fontSize=16;" vertex="1" parent="jbtqDZHQ1y1ZXkg8tkZU-349">
          <mxGeometry x="11" width="9" height="1" as="geometry">
            <mxRectangle width="9" height="1" as="alternateBounds" />
          </mxGeometry>
        </mxCell>
        <mxCell id="jbtqDZHQ1y1ZXkg8tkZU-352" value="" style="shape=partialRectangle;html=1;whiteSpace=wrap;connectable=0;strokeColor=inherit;overflow=hidden;fillColor=none;top=0;left=0;bottom=0;right=0;pointerEvents=1;fontSize=16;" vertex="1" parent="jbtqDZHQ1y1ZXkg8tkZU-349">
          <mxGeometry x="20" width="11" height="1" as="geometry">
            <mxRectangle width="11" height="1" as="alternateBounds" />
          </mxGeometry>
        </mxCell>
        <mxCell id="jbtqDZHQ1y1ZXkg8tkZU-353" value="" style="shape=tableRow;horizontal=0;startSize=0;swimlaneHead=0;swimlaneBody=0;strokeColor=inherit;top=0;left=0;bottom=0;right=0;collapsible=0;dropTarget=0;fillColor=none;points=[[0,0.5],[1,0.5]];portConstraint=eastwest;fontSize=16;" vertex="1" parent="jbtqDZHQ1y1ZXkg8tkZU-344">
          <mxGeometry y="23" width="30.565384615384612" height="2" as="geometry" />
        </mxCell>
        <mxCell id="jbtqDZHQ1y1ZXkg8tkZU-354" value="" style="shape=partialRectangle;html=1;whiteSpace=wrap;connectable=0;strokeColor=inherit;overflow=hidden;fillColor=none;top=0;left=0;bottom=0;right=0;pointerEvents=1;fontSize=16;" vertex="1" parent="jbtqDZHQ1y1ZXkg8tkZU-353">
          <mxGeometry width="11" height="2" as="geometry">
            <mxRectangle width="11" height="2" as="alternateBounds" />
          </mxGeometry>
        </mxCell>
        <mxCell id="jbtqDZHQ1y1ZXkg8tkZU-355" value="" style="shape=partialRectangle;html=1;whiteSpace=wrap;connectable=0;strokeColor=inherit;overflow=hidden;fillColor=none;top=0;left=0;bottom=0;right=0;pointerEvents=1;fontSize=16;" vertex="1" parent="jbtqDZHQ1y1ZXkg8tkZU-353">
          <mxGeometry x="11" width="9" height="2" as="geometry">
            <mxRectangle width="9" height="2" as="alternateBounds" />
          </mxGeometry>
        </mxCell>
        <mxCell id="jbtqDZHQ1y1ZXkg8tkZU-356" value="" style="shape=partialRectangle;html=1;whiteSpace=wrap;connectable=0;strokeColor=inherit;overflow=hidden;fillColor=none;top=0;left=0;bottom=0;right=0;pointerEvents=1;fontSize=16;" vertex="1" parent="jbtqDZHQ1y1ZXkg8tkZU-353">
          <mxGeometry x="20" width="11" height="2" as="geometry">
            <mxRectangle width="11" height="2" as="alternateBounds" />
          </mxGeometry>
        </mxCell>
        <mxCell id="jbtqDZHQ1y1ZXkg8tkZU-357" value="RECIPIE" style="shape=table;startSize=20;container=1;collapsible=0;childLayout=tableLayout;strokeColor=default;fontSize=7;sketch=1;curveFitting=1;jiggle=2;fontFamily=Times New Roman;" vertex="1" parent="jbtqDZHQ1y1ZXkg8tkZU-309">
          <mxGeometry x="138.46153846153845" y="67.6923076923077" width="30.565384615384612" height="24.615384615384613" as="geometry" />
        </mxCell>
        <mxCell id="jbtqDZHQ1y1ZXkg8tkZU-358" value="" style="shape=tableRow;horizontal=0;startSize=0;swimlaneHead=0;swimlaneBody=0;strokeColor=inherit;top=0;left=0;bottom=0;right=0;collapsible=0;dropTarget=0;fillColor=none;points=[[0,0.5],[1,0.5]];portConstraint=eastwest;fontSize=16;" vertex="1" parent="jbtqDZHQ1y1ZXkg8tkZU-357">
          <mxGeometry y="20" width="30.565384615384612" height="2" as="geometry" />
        </mxCell>
        <mxCell id="jbtqDZHQ1y1ZXkg8tkZU-359" value="" style="shape=partialRectangle;html=1;whiteSpace=wrap;connectable=0;strokeColor=inherit;overflow=hidden;fillColor=none;top=0;left=0;bottom=0;right=0;pointerEvents=1;fontSize=16;" vertex="1" parent="jbtqDZHQ1y1ZXkg8tkZU-358">
          <mxGeometry width="11" height="2" as="geometry">
            <mxRectangle width="11" height="2" as="alternateBounds" />
          </mxGeometry>
        </mxCell>
        <mxCell id="jbtqDZHQ1y1ZXkg8tkZU-360" value="" style="shape=partialRectangle;html=1;whiteSpace=wrap;connectable=0;strokeColor=inherit;overflow=hidden;fillColor=none;top=0;left=0;bottom=0;right=0;pointerEvents=1;fontSize=16;" vertex="1" parent="jbtqDZHQ1y1ZXkg8tkZU-358">
          <mxGeometry x="11" width="9" height="2" as="geometry">
            <mxRectangle width="9" height="2" as="alternateBounds" />
          </mxGeometry>
        </mxCell>
        <mxCell id="jbtqDZHQ1y1ZXkg8tkZU-361" value="" style="shape=partialRectangle;html=1;whiteSpace=wrap;connectable=0;strokeColor=inherit;overflow=hidden;fillColor=none;top=0;left=0;bottom=0;right=0;pointerEvents=1;fontSize=16;" vertex="1" parent="jbtqDZHQ1y1ZXkg8tkZU-358">
          <mxGeometry x="20" width="11" height="2" as="geometry">
            <mxRectangle width="11" height="2" as="alternateBounds" />
          </mxGeometry>
        </mxCell>
        <mxCell id="jbtqDZHQ1y1ZXkg8tkZU-362" value="" style="shape=tableRow;horizontal=0;startSize=0;swimlaneHead=0;swimlaneBody=0;strokeColor=inherit;top=0;left=0;bottom=0;right=0;collapsible=0;dropTarget=0;fillColor=none;points=[[0,0.5],[1,0.5]];portConstraint=eastwest;fontSize=16;" vertex="1" parent="jbtqDZHQ1y1ZXkg8tkZU-357">
          <mxGeometry y="22" width="30.565384615384612" height="1" as="geometry" />
        </mxCell>
        <mxCell id="jbtqDZHQ1y1ZXkg8tkZU-363" value="" style="shape=partialRectangle;html=1;whiteSpace=wrap;connectable=0;strokeColor=inherit;overflow=hidden;fillColor=none;top=0;left=0;bottom=0;right=0;pointerEvents=1;fontSize=16;" vertex="1" parent="jbtqDZHQ1y1ZXkg8tkZU-362">
          <mxGeometry width="11" height="1" as="geometry">
            <mxRectangle width="11" height="1" as="alternateBounds" />
          </mxGeometry>
        </mxCell>
        <mxCell id="jbtqDZHQ1y1ZXkg8tkZU-364" value="" style="shape=partialRectangle;html=1;whiteSpace=wrap;connectable=0;strokeColor=inherit;overflow=hidden;fillColor=none;top=0;left=0;bottom=0;right=0;pointerEvents=1;fontSize=16;" vertex="1" parent="jbtqDZHQ1y1ZXkg8tkZU-362">
          <mxGeometry x="11" width="9" height="1" as="geometry">
            <mxRectangle width="9" height="1" as="alternateBounds" />
          </mxGeometry>
        </mxCell>
        <mxCell id="jbtqDZHQ1y1ZXkg8tkZU-365" value="" style="shape=partialRectangle;html=1;whiteSpace=wrap;connectable=0;strokeColor=inherit;overflow=hidden;fillColor=none;top=0;left=0;bottom=0;right=0;pointerEvents=1;fontSize=16;" vertex="1" parent="jbtqDZHQ1y1ZXkg8tkZU-362">
          <mxGeometry x="20" width="11" height="1" as="geometry">
            <mxRectangle width="11" height="1" as="alternateBounds" />
          </mxGeometry>
        </mxCell>
        <mxCell id="jbtqDZHQ1y1ZXkg8tkZU-366" value="" style="shape=tableRow;horizontal=0;startSize=0;swimlaneHead=0;swimlaneBody=0;strokeColor=inherit;top=0;left=0;bottom=0;right=0;collapsible=0;dropTarget=0;fillColor=none;points=[[0,0.5],[1,0.5]];portConstraint=eastwest;fontSize=16;" vertex="1" parent="jbtqDZHQ1y1ZXkg8tkZU-357">
          <mxGeometry y="23" width="30.565384615384612" height="2" as="geometry" />
        </mxCell>
        <mxCell id="jbtqDZHQ1y1ZXkg8tkZU-367" value="" style="shape=partialRectangle;html=1;whiteSpace=wrap;connectable=0;strokeColor=inherit;overflow=hidden;fillColor=none;top=0;left=0;bottom=0;right=0;pointerEvents=1;fontSize=16;" vertex="1" parent="jbtqDZHQ1y1ZXkg8tkZU-366">
          <mxGeometry width="11" height="2" as="geometry">
            <mxRectangle width="11" height="2" as="alternateBounds" />
          </mxGeometry>
        </mxCell>
        <mxCell id="jbtqDZHQ1y1ZXkg8tkZU-368" value="" style="shape=partialRectangle;html=1;whiteSpace=wrap;connectable=0;strokeColor=inherit;overflow=hidden;fillColor=none;top=0;left=0;bottom=0;right=0;pointerEvents=1;fontSize=16;" vertex="1" parent="jbtqDZHQ1y1ZXkg8tkZU-366">
          <mxGeometry x="11" width="9" height="2" as="geometry">
            <mxRectangle width="9" height="2" as="alternateBounds" />
          </mxGeometry>
        </mxCell>
        <mxCell id="jbtqDZHQ1y1ZXkg8tkZU-369" value="" style="shape=partialRectangle;html=1;whiteSpace=wrap;connectable=0;strokeColor=inherit;overflow=hidden;fillColor=none;top=0;left=0;bottom=0;right=0;pointerEvents=1;fontSize=16;" vertex="1" parent="jbtqDZHQ1y1ZXkg8tkZU-366">
          <mxGeometry x="20" width="11" height="2" as="geometry">
            <mxRectangle width="11" height="2" as="alternateBounds" />
          </mxGeometry>
        </mxCell>
        <mxCell id="jbtqDZHQ1y1ZXkg8tkZU-370" style="edgeStyle=orthogonalEdgeStyle;rounded=0;orthogonalLoop=1;jettySize=auto;html=1;entryX=0;entryY=0.25;entryDx=0;entryDy=0;sketch=1;curveFitting=1;jiggle=2;" edge="1" parent="jbtqDZHQ1y1ZXkg8tkZU-309" source="jbtqDZHQ1y1ZXkg8tkZU-371" target="jbtqDZHQ1y1ZXkg8tkZU-384">
          <mxGeometry relative="1" as="geometry" />
        </mxCell>
        <mxCell id="jbtqDZHQ1y1ZXkg8tkZU-371" value="FERMENT" style="shape=table;startSize=20;container=1;collapsible=0;childLayout=tableLayout;strokeColor=default;fontSize=5;sketch=1;curveFitting=1;jiggle=2;fontFamily=Times New Roman;" vertex="1" parent="jbtqDZHQ1y1ZXkg8tkZU-309">
          <mxGeometry x="145.38461538461536" y="98.46153846153845" width="30.565384615384612" height="24.615384615384613" as="geometry" />
        </mxCell>
        <mxCell id="jbtqDZHQ1y1ZXkg8tkZU-372" value="" style="shape=tableRow;horizontal=0;startSize=0;swimlaneHead=0;swimlaneBody=0;strokeColor=inherit;top=0;left=0;bottom=0;right=0;collapsible=0;dropTarget=0;fillColor=none;points=[[0,0.5],[1,0.5]];portConstraint=eastwest;fontSize=16;" vertex="1" parent="jbtqDZHQ1y1ZXkg8tkZU-371">
          <mxGeometry y="20" width="30.565384615384612" height="2" as="geometry" />
        </mxCell>
        <mxCell id="jbtqDZHQ1y1ZXkg8tkZU-373" value="" style="shape=partialRectangle;html=1;whiteSpace=wrap;connectable=0;strokeColor=inherit;overflow=hidden;fillColor=none;top=0;left=0;bottom=0;right=0;pointerEvents=1;fontSize=16;" vertex="1" parent="jbtqDZHQ1y1ZXkg8tkZU-372">
          <mxGeometry width="6" height="2" as="geometry">
            <mxRectangle width="6" height="2" as="alternateBounds" />
          </mxGeometry>
        </mxCell>
        <mxCell id="jbtqDZHQ1y1ZXkg8tkZU-374" value="" style="shape=partialRectangle;html=1;whiteSpace=wrap;connectable=0;strokeColor=inherit;overflow=hidden;fillColor=none;top=0;left=0;bottom=0;right=0;pointerEvents=1;fontSize=16;" vertex="1" parent="jbtqDZHQ1y1ZXkg8tkZU-372">
          <mxGeometry x="6" width="14" height="2" as="geometry">
            <mxRectangle width="14" height="2" as="alternateBounds" />
          </mxGeometry>
        </mxCell>
        <mxCell id="jbtqDZHQ1y1ZXkg8tkZU-375" value="" style="shape=partialRectangle;html=1;whiteSpace=wrap;connectable=0;strokeColor=inherit;overflow=hidden;fillColor=none;top=0;left=0;bottom=0;right=0;pointerEvents=1;fontSize=16;" vertex="1" parent="jbtqDZHQ1y1ZXkg8tkZU-372">
          <mxGeometry x="20" width="11" height="2" as="geometry">
            <mxRectangle width="11" height="2" as="alternateBounds" />
          </mxGeometry>
        </mxCell>
        <mxCell id="jbtqDZHQ1y1ZXkg8tkZU-376" value="" style="shape=tableRow;horizontal=0;startSize=0;swimlaneHead=0;swimlaneBody=0;strokeColor=inherit;top=0;left=0;bottom=0;right=0;collapsible=0;dropTarget=0;fillColor=none;points=[[0,0.5],[1,0.5]];portConstraint=eastwest;fontSize=16;" vertex="1" parent="jbtqDZHQ1y1ZXkg8tkZU-371">
          <mxGeometry y="22" width="30.565384615384612" height="1" as="geometry" />
        </mxCell>
        <mxCell id="jbtqDZHQ1y1ZXkg8tkZU-377" value="" style="shape=partialRectangle;html=1;whiteSpace=wrap;connectable=0;strokeColor=inherit;overflow=hidden;fillColor=none;top=0;left=0;bottom=0;right=0;pointerEvents=1;fontSize=16;" vertex="1" parent="jbtqDZHQ1y1ZXkg8tkZU-376">
          <mxGeometry width="6" height="1" as="geometry">
            <mxRectangle width="6" height="1" as="alternateBounds" />
          </mxGeometry>
        </mxCell>
        <mxCell id="jbtqDZHQ1y1ZXkg8tkZU-378" value="" style="shape=partialRectangle;html=1;whiteSpace=wrap;connectable=0;strokeColor=inherit;overflow=hidden;fillColor=none;top=0;left=0;bottom=0;right=0;pointerEvents=1;fontSize=16;" vertex="1" parent="jbtqDZHQ1y1ZXkg8tkZU-376">
          <mxGeometry x="6" width="14" height="1" as="geometry">
            <mxRectangle width="14" height="1" as="alternateBounds" />
          </mxGeometry>
        </mxCell>
        <mxCell id="jbtqDZHQ1y1ZXkg8tkZU-379" value="" style="shape=partialRectangle;html=1;whiteSpace=wrap;connectable=0;strokeColor=inherit;overflow=hidden;fillColor=none;top=0;left=0;bottom=0;right=0;pointerEvents=1;fontSize=16;" vertex="1" parent="jbtqDZHQ1y1ZXkg8tkZU-376">
          <mxGeometry x="20" width="11" height="1" as="geometry">
            <mxRectangle width="11" height="1" as="alternateBounds" />
          </mxGeometry>
        </mxCell>
        <mxCell id="jbtqDZHQ1y1ZXkg8tkZU-380" value="" style="shape=tableRow;horizontal=0;startSize=0;swimlaneHead=0;swimlaneBody=0;strokeColor=inherit;top=0;left=0;bottom=0;right=0;collapsible=0;dropTarget=0;fillColor=none;points=[[0,0.5],[1,0.5]];portConstraint=eastwest;fontSize=16;" vertex="1" parent="jbtqDZHQ1y1ZXkg8tkZU-371">
          <mxGeometry y="23" width="30.565384615384612" height="2" as="geometry" />
        </mxCell>
        <mxCell id="jbtqDZHQ1y1ZXkg8tkZU-381" value="" style="shape=partialRectangle;html=1;whiteSpace=wrap;connectable=0;strokeColor=inherit;overflow=hidden;fillColor=none;top=0;left=0;bottom=0;right=0;pointerEvents=1;fontSize=16;" vertex="1" parent="jbtqDZHQ1y1ZXkg8tkZU-380">
          <mxGeometry width="6" height="2" as="geometry">
            <mxRectangle width="6" height="2" as="alternateBounds" />
          </mxGeometry>
        </mxCell>
        <mxCell id="jbtqDZHQ1y1ZXkg8tkZU-382" value="" style="shape=partialRectangle;html=1;whiteSpace=wrap;connectable=0;strokeColor=inherit;overflow=hidden;fillColor=none;top=0;left=0;bottom=0;right=0;pointerEvents=1;fontSize=16;" vertex="1" parent="jbtqDZHQ1y1ZXkg8tkZU-380">
          <mxGeometry x="6" width="14" height="2" as="geometry">
            <mxRectangle width="14" height="2" as="alternateBounds" />
          </mxGeometry>
        </mxCell>
        <mxCell id="jbtqDZHQ1y1ZXkg8tkZU-383" value="" style="shape=partialRectangle;html=1;whiteSpace=wrap;connectable=0;strokeColor=inherit;overflow=hidden;fillColor=none;top=0;left=0;bottom=0;right=0;pointerEvents=1;fontSize=16;" vertex="1" parent="jbtqDZHQ1y1ZXkg8tkZU-380">
          <mxGeometry x="20" width="11" height="2" as="geometry">
            <mxRectangle width="11" height="2" as="alternateBounds" />
          </mxGeometry>
        </mxCell>
        <mxCell id="jbtqDZHQ1y1ZXkg8tkZU-384" value="BOTTLING" style="shape=table;startSize=20;container=1;collapsible=0;childLayout=tableLayout;strokeColor=default;fontSize=5;sketch=1;curveFitting=1;jiggle=2;fontFamily=Times New Roman;" vertex="1" parent="jbtqDZHQ1y1ZXkg8tkZU-309">
          <mxGeometry x="186.9230769230769" y="104.61538461538461" width="30.565384615384612" height="24.615384615384613" as="geometry" />
        </mxCell>
        <mxCell id="jbtqDZHQ1y1ZXkg8tkZU-385" value="" style="shape=tableRow;horizontal=0;startSize=0;swimlaneHead=0;swimlaneBody=0;strokeColor=inherit;top=0;left=0;bottom=0;right=0;collapsible=0;dropTarget=0;fillColor=none;points=[[0,0.5],[1,0.5]];portConstraint=eastwest;fontSize=16;" vertex="1" parent="jbtqDZHQ1y1ZXkg8tkZU-384">
          <mxGeometry y="20" width="30.565384615384612" height="2" as="geometry" />
        </mxCell>
        <mxCell id="jbtqDZHQ1y1ZXkg8tkZU-386" value="" style="shape=partialRectangle;html=1;whiteSpace=wrap;connectable=0;strokeColor=inherit;overflow=hidden;fillColor=none;top=0;left=0;bottom=0;right=0;pointerEvents=1;fontSize=16;" vertex="1" parent="jbtqDZHQ1y1ZXkg8tkZU-385">
          <mxGeometry width="11" height="2" as="geometry">
            <mxRectangle width="11" height="2" as="alternateBounds" />
          </mxGeometry>
        </mxCell>
        <mxCell id="jbtqDZHQ1y1ZXkg8tkZU-387" value="" style="shape=partialRectangle;html=1;whiteSpace=wrap;connectable=0;strokeColor=inherit;overflow=hidden;fillColor=none;top=0;left=0;bottom=0;right=0;pointerEvents=1;fontSize=16;" vertex="1" parent="jbtqDZHQ1y1ZXkg8tkZU-385">
          <mxGeometry x="11" width="9" height="2" as="geometry">
            <mxRectangle width="9" height="2" as="alternateBounds" />
          </mxGeometry>
        </mxCell>
        <mxCell id="jbtqDZHQ1y1ZXkg8tkZU-388" value="" style="shape=partialRectangle;html=1;whiteSpace=wrap;connectable=0;strokeColor=inherit;overflow=hidden;fillColor=none;top=0;left=0;bottom=0;right=0;pointerEvents=1;fontSize=16;" vertex="1" parent="jbtqDZHQ1y1ZXkg8tkZU-385">
          <mxGeometry x="20" width="11" height="2" as="geometry">
            <mxRectangle width="11" height="2" as="alternateBounds" />
          </mxGeometry>
        </mxCell>
        <mxCell id="jbtqDZHQ1y1ZXkg8tkZU-389" value="" style="shape=tableRow;horizontal=0;startSize=0;swimlaneHead=0;swimlaneBody=0;strokeColor=inherit;top=0;left=0;bottom=0;right=0;collapsible=0;dropTarget=0;fillColor=none;points=[[0,0.5],[1,0.5]];portConstraint=eastwest;fontSize=16;" vertex="1" parent="jbtqDZHQ1y1ZXkg8tkZU-384">
          <mxGeometry y="22" width="30.565384615384612" height="1" as="geometry" />
        </mxCell>
        <mxCell id="jbtqDZHQ1y1ZXkg8tkZU-390" value="" style="shape=partialRectangle;html=1;whiteSpace=wrap;connectable=0;strokeColor=inherit;overflow=hidden;fillColor=none;top=0;left=0;bottom=0;right=0;pointerEvents=1;fontSize=16;" vertex="1" parent="jbtqDZHQ1y1ZXkg8tkZU-389">
          <mxGeometry width="11" height="1" as="geometry">
            <mxRectangle width="11" height="1" as="alternateBounds" />
          </mxGeometry>
        </mxCell>
        <mxCell id="jbtqDZHQ1y1ZXkg8tkZU-391" value="" style="shape=partialRectangle;html=1;whiteSpace=wrap;connectable=0;strokeColor=inherit;overflow=hidden;fillColor=none;top=0;left=0;bottom=0;right=0;pointerEvents=1;fontSize=16;" vertex="1" parent="jbtqDZHQ1y1ZXkg8tkZU-389">
          <mxGeometry x="11" width="9" height="1" as="geometry">
            <mxRectangle width="9" height="1" as="alternateBounds" />
          </mxGeometry>
        </mxCell>
        <mxCell id="jbtqDZHQ1y1ZXkg8tkZU-392" value="" style="shape=partialRectangle;html=1;whiteSpace=wrap;connectable=0;strokeColor=inherit;overflow=hidden;fillColor=none;top=0;left=0;bottom=0;right=0;pointerEvents=1;fontSize=16;" vertex="1" parent="jbtqDZHQ1y1ZXkg8tkZU-389">
          <mxGeometry x="20" width="11" height="1" as="geometry">
            <mxRectangle width="11" height="1" as="alternateBounds" />
          </mxGeometry>
        </mxCell>
        <mxCell id="jbtqDZHQ1y1ZXkg8tkZU-393" value="" style="shape=tableRow;horizontal=0;startSize=0;swimlaneHead=0;swimlaneBody=0;strokeColor=inherit;top=0;left=0;bottom=0;right=0;collapsible=0;dropTarget=0;fillColor=none;points=[[0,0.5],[1,0.5]];portConstraint=eastwest;fontSize=16;" vertex="1" parent="jbtqDZHQ1y1ZXkg8tkZU-384">
          <mxGeometry y="23" width="30.565384615384612" height="2" as="geometry" />
        </mxCell>
        <mxCell id="jbtqDZHQ1y1ZXkg8tkZU-394" value="" style="shape=partialRectangle;html=1;whiteSpace=wrap;connectable=0;strokeColor=inherit;overflow=hidden;fillColor=none;top=0;left=0;bottom=0;right=0;pointerEvents=1;fontSize=16;" vertex="1" parent="jbtqDZHQ1y1ZXkg8tkZU-393">
          <mxGeometry width="11" height="2" as="geometry">
            <mxRectangle width="11" height="2" as="alternateBounds" />
          </mxGeometry>
        </mxCell>
        <mxCell id="jbtqDZHQ1y1ZXkg8tkZU-395" value="" style="shape=partialRectangle;html=1;whiteSpace=wrap;connectable=0;strokeColor=inherit;overflow=hidden;fillColor=none;top=0;left=0;bottom=0;right=0;pointerEvents=1;fontSize=16;" vertex="1" parent="jbtqDZHQ1y1ZXkg8tkZU-393">
          <mxGeometry x="11" width="9" height="2" as="geometry">
            <mxRectangle width="9" height="2" as="alternateBounds" />
          </mxGeometry>
        </mxCell>
        <mxCell id="jbtqDZHQ1y1ZXkg8tkZU-396" value="" style="shape=partialRectangle;html=1;whiteSpace=wrap;connectable=0;strokeColor=inherit;overflow=hidden;fillColor=none;top=0;left=0;bottom=0;right=0;pointerEvents=1;fontSize=16;" vertex="1" parent="jbtqDZHQ1y1ZXkg8tkZU-393">
          <mxGeometry x="20" width="11" height="2" as="geometry">
            <mxRectangle width="11" height="2" as="alternateBounds" />
          </mxGeometry>
        </mxCell>
        <mxCell id="jbtqDZHQ1y1ZXkg8tkZU-397" value="YEAST" style="shape=table;startSize=20;container=1;collapsible=0;childLayout=tableLayout;strokeColor=default;fontSize=8;sketch=1;curveFitting=1;jiggle=2;fontFamily=Times New Roman;" vertex="1" parent="jbtqDZHQ1y1ZXkg8tkZU-309">
          <mxGeometry x="69.23076923076923" y="104.61538461538461" width="30.565384615384612" height="24.615384615384613" as="geometry" />
        </mxCell>
        <mxCell id="jbtqDZHQ1y1ZXkg8tkZU-398" value="" style="shape=tableRow;horizontal=0;startSize=0;swimlaneHead=0;swimlaneBody=0;strokeColor=inherit;top=0;left=0;bottom=0;right=0;collapsible=0;dropTarget=0;fillColor=none;points=[[0,0.5],[1,0.5]];portConstraint=eastwest;fontSize=16;" vertex="1" parent="jbtqDZHQ1y1ZXkg8tkZU-397">
          <mxGeometry y="20" width="30.565384615384612" height="2" as="geometry" />
        </mxCell>
        <mxCell id="jbtqDZHQ1y1ZXkg8tkZU-399" value="" style="shape=partialRectangle;html=1;whiteSpace=wrap;connectable=0;strokeColor=inherit;overflow=hidden;fillColor=none;top=0;left=0;bottom=0;right=0;pointerEvents=1;fontSize=16;" vertex="1" parent="jbtqDZHQ1y1ZXkg8tkZU-398">
          <mxGeometry width="11" height="2" as="geometry">
            <mxRectangle width="11" height="2" as="alternateBounds" />
          </mxGeometry>
        </mxCell>
        <mxCell id="jbtqDZHQ1y1ZXkg8tkZU-400" value="" style="shape=partialRectangle;html=1;whiteSpace=wrap;connectable=0;strokeColor=inherit;overflow=hidden;fillColor=none;top=0;left=0;bottom=0;right=0;pointerEvents=1;fontSize=16;" vertex="1" parent="jbtqDZHQ1y1ZXkg8tkZU-398">
          <mxGeometry x="11" width="9" height="2" as="geometry">
            <mxRectangle width="9" height="2" as="alternateBounds" />
          </mxGeometry>
        </mxCell>
        <mxCell id="jbtqDZHQ1y1ZXkg8tkZU-401" value="" style="shape=partialRectangle;html=1;whiteSpace=wrap;connectable=0;strokeColor=inherit;overflow=hidden;fillColor=none;top=0;left=0;bottom=0;right=0;pointerEvents=1;fontSize=16;" vertex="1" parent="jbtqDZHQ1y1ZXkg8tkZU-398">
          <mxGeometry x="20" width="11" height="2" as="geometry">
            <mxRectangle width="11" height="2" as="alternateBounds" />
          </mxGeometry>
        </mxCell>
        <mxCell id="jbtqDZHQ1y1ZXkg8tkZU-402" value="" style="shape=tableRow;horizontal=0;startSize=0;swimlaneHead=0;swimlaneBody=0;strokeColor=inherit;top=0;left=0;bottom=0;right=0;collapsible=0;dropTarget=0;fillColor=none;points=[[0,0.5],[1,0.5]];portConstraint=eastwest;fontSize=16;" vertex="1" parent="jbtqDZHQ1y1ZXkg8tkZU-397">
          <mxGeometry y="22" width="30.565384615384612" height="1" as="geometry" />
        </mxCell>
        <mxCell id="jbtqDZHQ1y1ZXkg8tkZU-403" value="" style="shape=partialRectangle;html=1;whiteSpace=wrap;connectable=0;strokeColor=inherit;overflow=hidden;fillColor=none;top=0;left=0;bottom=0;right=0;pointerEvents=1;fontSize=16;" vertex="1" parent="jbtqDZHQ1y1ZXkg8tkZU-402">
          <mxGeometry width="11" height="1" as="geometry">
            <mxRectangle width="11" height="1" as="alternateBounds" />
          </mxGeometry>
        </mxCell>
        <mxCell id="jbtqDZHQ1y1ZXkg8tkZU-404" value="" style="shape=partialRectangle;html=1;whiteSpace=wrap;connectable=0;strokeColor=inherit;overflow=hidden;fillColor=none;top=0;left=0;bottom=0;right=0;pointerEvents=1;fontSize=16;" vertex="1" parent="jbtqDZHQ1y1ZXkg8tkZU-402">
          <mxGeometry x="11" width="9" height="1" as="geometry">
            <mxRectangle width="9" height="1" as="alternateBounds" />
          </mxGeometry>
        </mxCell>
        <mxCell id="jbtqDZHQ1y1ZXkg8tkZU-405" value="" style="shape=partialRectangle;html=1;whiteSpace=wrap;connectable=0;strokeColor=inherit;overflow=hidden;fillColor=none;top=0;left=0;bottom=0;right=0;pointerEvents=1;fontSize=16;" vertex="1" parent="jbtqDZHQ1y1ZXkg8tkZU-402">
          <mxGeometry x="20" width="11" height="1" as="geometry">
            <mxRectangle width="11" height="1" as="alternateBounds" />
          </mxGeometry>
        </mxCell>
        <mxCell id="jbtqDZHQ1y1ZXkg8tkZU-406" value="" style="shape=tableRow;horizontal=0;startSize=0;swimlaneHead=0;swimlaneBody=0;strokeColor=inherit;top=0;left=0;bottom=0;right=0;collapsible=0;dropTarget=0;fillColor=none;points=[[0,0.5],[1,0.5]];portConstraint=eastwest;fontSize=16;" vertex="1" parent="jbtqDZHQ1y1ZXkg8tkZU-397">
          <mxGeometry y="23" width="30.565384615384612" height="2" as="geometry" />
        </mxCell>
        <mxCell id="jbtqDZHQ1y1ZXkg8tkZU-407" value="" style="shape=partialRectangle;html=1;whiteSpace=wrap;connectable=0;strokeColor=inherit;overflow=hidden;fillColor=none;top=0;left=0;bottom=0;right=0;pointerEvents=1;fontSize=16;" vertex="1" parent="jbtqDZHQ1y1ZXkg8tkZU-406">
          <mxGeometry width="11" height="2" as="geometry">
            <mxRectangle width="11" height="2" as="alternateBounds" />
          </mxGeometry>
        </mxCell>
        <mxCell id="jbtqDZHQ1y1ZXkg8tkZU-408" value="" style="shape=partialRectangle;html=1;whiteSpace=wrap;connectable=0;strokeColor=inherit;overflow=hidden;fillColor=none;top=0;left=0;bottom=0;right=0;pointerEvents=1;fontSize=16;" vertex="1" parent="jbtqDZHQ1y1ZXkg8tkZU-406">
          <mxGeometry x="11" width="9" height="2" as="geometry">
            <mxRectangle width="9" height="2" as="alternateBounds" />
          </mxGeometry>
        </mxCell>
        <mxCell id="jbtqDZHQ1y1ZXkg8tkZU-409" value="" style="shape=partialRectangle;html=1;whiteSpace=wrap;connectable=0;strokeColor=inherit;overflow=hidden;fillColor=none;top=0;left=0;bottom=0;right=0;pointerEvents=1;fontSize=16;" vertex="1" parent="jbtqDZHQ1y1ZXkg8tkZU-406">
          <mxGeometry x="20" width="11" height="2" as="geometry">
            <mxRectangle width="11" height="2" as="alternateBounds" />
          </mxGeometry>
        </mxCell>
        <mxCell id="jbtqDZHQ1y1ZXkg8tkZU-410" value="MERCH" style="shape=table;startSize=20;container=1;collapsible=0;childLayout=tableLayout;strokeColor=default;fontSize=7;sketch=1;curveFitting=1;jiggle=2;fontFamily=Times New Roman;" vertex="1" parent="jbtqDZHQ1y1ZXkg8tkZU-309">
          <mxGeometry x="297.6923076923076" y="92.3076923076923" width="30.565384615384612" height="24.615384615384613" as="geometry" />
        </mxCell>
        <mxCell id="jbtqDZHQ1y1ZXkg8tkZU-411" value="" style="shape=tableRow;horizontal=0;startSize=0;swimlaneHead=0;swimlaneBody=0;strokeColor=inherit;top=0;left=0;bottom=0;right=0;collapsible=0;dropTarget=0;fillColor=none;points=[[0,0.5],[1,0.5]];portConstraint=eastwest;fontSize=16;" vertex="1" parent="jbtqDZHQ1y1ZXkg8tkZU-410">
          <mxGeometry y="20" width="30.565384615384612" height="2" as="geometry" />
        </mxCell>
        <mxCell id="jbtqDZHQ1y1ZXkg8tkZU-412" value="" style="shape=partialRectangle;html=1;whiteSpace=wrap;connectable=0;strokeColor=inherit;overflow=hidden;fillColor=none;top=0;left=0;bottom=0;right=0;pointerEvents=1;fontSize=16;" vertex="1" parent="jbtqDZHQ1y1ZXkg8tkZU-411">
          <mxGeometry width="11" height="2" as="geometry">
            <mxRectangle width="11" height="2" as="alternateBounds" />
          </mxGeometry>
        </mxCell>
        <mxCell id="jbtqDZHQ1y1ZXkg8tkZU-413" value="" style="shape=partialRectangle;html=1;whiteSpace=wrap;connectable=0;strokeColor=inherit;overflow=hidden;fillColor=none;top=0;left=0;bottom=0;right=0;pointerEvents=1;fontSize=16;" vertex="1" parent="jbtqDZHQ1y1ZXkg8tkZU-411">
          <mxGeometry x="11" width="9" height="2" as="geometry">
            <mxRectangle width="9" height="2" as="alternateBounds" />
          </mxGeometry>
        </mxCell>
        <mxCell id="jbtqDZHQ1y1ZXkg8tkZU-414" value="" style="shape=partialRectangle;html=1;whiteSpace=wrap;connectable=0;strokeColor=inherit;overflow=hidden;fillColor=none;top=0;left=0;bottom=0;right=0;pointerEvents=1;fontSize=16;" vertex="1" parent="jbtqDZHQ1y1ZXkg8tkZU-411">
          <mxGeometry x="20" width="11" height="2" as="geometry">
            <mxRectangle width="11" height="2" as="alternateBounds" />
          </mxGeometry>
        </mxCell>
        <mxCell id="jbtqDZHQ1y1ZXkg8tkZU-415" value="" style="shape=tableRow;horizontal=0;startSize=0;swimlaneHead=0;swimlaneBody=0;strokeColor=inherit;top=0;left=0;bottom=0;right=0;collapsible=0;dropTarget=0;fillColor=none;points=[[0,0.5],[1,0.5]];portConstraint=eastwest;fontSize=16;" vertex="1" parent="jbtqDZHQ1y1ZXkg8tkZU-410">
          <mxGeometry y="22" width="30.565384615384612" height="1" as="geometry" />
        </mxCell>
        <mxCell id="jbtqDZHQ1y1ZXkg8tkZU-416" value="" style="shape=partialRectangle;html=1;whiteSpace=wrap;connectable=0;strokeColor=inherit;overflow=hidden;fillColor=none;top=0;left=0;bottom=0;right=0;pointerEvents=1;fontSize=16;" vertex="1" parent="jbtqDZHQ1y1ZXkg8tkZU-415">
          <mxGeometry width="11" height="1" as="geometry">
            <mxRectangle width="11" height="1" as="alternateBounds" />
          </mxGeometry>
        </mxCell>
        <mxCell id="jbtqDZHQ1y1ZXkg8tkZU-417" value="" style="shape=partialRectangle;html=1;whiteSpace=wrap;connectable=0;strokeColor=inherit;overflow=hidden;fillColor=none;top=0;left=0;bottom=0;right=0;pointerEvents=1;fontSize=16;" vertex="1" parent="jbtqDZHQ1y1ZXkg8tkZU-415">
          <mxGeometry x="11" width="9" height="1" as="geometry">
            <mxRectangle width="9" height="1" as="alternateBounds" />
          </mxGeometry>
        </mxCell>
        <mxCell id="jbtqDZHQ1y1ZXkg8tkZU-418" value="" style="shape=partialRectangle;html=1;whiteSpace=wrap;connectable=0;strokeColor=inherit;overflow=hidden;fillColor=none;top=0;left=0;bottom=0;right=0;pointerEvents=1;fontSize=16;" vertex="1" parent="jbtqDZHQ1y1ZXkg8tkZU-415">
          <mxGeometry x="20" width="11" height="1" as="geometry">
            <mxRectangle width="11" height="1" as="alternateBounds" />
          </mxGeometry>
        </mxCell>
        <mxCell id="jbtqDZHQ1y1ZXkg8tkZU-419" value="" style="shape=tableRow;horizontal=0;startSize=0;swimlaneHead=0;swimlaneBody=0;strokeColor=inherit;top=0;left=0;bottom=0;right=0;collapsible=0;dropTarget=0;fillColor=none;points=[[0,0.5],[1,0.5]];portConstraint=eastwest;fontSize=16;" vertex="1" parent="jbtqDZHQ1y1ZXkg8tkZU-410">
          <mxGeometry y="23" width="30.565384615384612" height="2" as="geometry" />
        </mxCell>
        <mxCell id="jbtqDZHQ1y1ZXkg8tkZU-420" value="" style="shape=partialRectangle;html=1;whiteSpace=wrap;connectable=0;strokeColor=inherit;overflow=hidden;fillColor=none;top=0;left=0;bottom=0;right=0;pointerEvents=1;fontSize=16;" vertex="1" parent="jbtqDZHQ1y1ZXkg8tkZU-419">
          <mxGeometry width="11" height="2" as="geometry">
            <mxRectangle width="11" height="2" as="alternateBounds" />
          </mxGeometry>
        </mxCell>
        <mxCell id="jbtqDZHQ1y1ZXkg8tkZU-421" value="" style="shape=partialRectangle;html=1;whiteSpace=wrap;connectable=0;strokeColor=inherit;overflow=hidden;fillColor=none;top=0;left=0;bottom=0;right=0;pointerEvents=1;fontSize=16;" vertex="1" parent="jbtqDZHQ1y1ZXkg8tkZU-419">
          <mxGeometry x="11" width="9" height="2" as="geometry">
            <mxRectangle width="9" height="2" as="alternateBounds" />
          </mxGeometry>
        </mxCell>
        <mxCell id="jbtqDZHQ1y1ZXkg8tkZU-422" value="" style="shape=partialRectangle;html=1;whiteSpace=wrap;connectable=0;strokeColor=inherit;overflow=hidden;fillColor=none;top=0;left=0;bottom=0;right=0;pointerEvents=1;fontSize=16;" vertex="1" parent="jbtqDZHQ1y1ZXkg8tkZU-419">
          <mxGeometry x="20" width="11" height="2" as="geometry">
            <mxRectangle width="11" height="2" as="alternateBounds" />
          </mxGeometry>
        </mxCell>
        <mxCell id="jbtqDZHQ1y1ZXkg8tkZU-423" value="BEER" style="shape=table;startSize=20;container=1;collapsible=0;childLayout=tableLayout;strokeColor=default;fontSize=10;sketch=1;curveFitting=1;jiggle=2;fontFamily=Times New Roman;" vertex="1" parent="jbtqDZHQ1y1ZXkg8tkZU-309">
          <mxGeometry x="256.15384615384613" y="73.84615384615385" width="30.565384615384612" height="24.615384615384613" as="geometry" />
        </mxCell>
        <mxCell id="jbtqDZHQ1y1ZXkg8tkZU-424" value="" style="shape=tableRow;horizontal=0;startSize=0;swimlaneHead=0;swimlaneBody=0;strokeColor=inherit;top=0;left=0;bottom=0;right=0;collapsible=0;dropTarget=0;fillColor=none;points=[[0,0.5],[1,0.5]];portConstraint=eastwest;fontSize=16;" vertex="1" parent="jbtqDZHQ1y1ZXkg8tkZU-423">
          <mxGeometry y="20" width="30.565384615384612" height="2" as="geometry" />
        </mxCell>
        <mxCell id="jbtqDZHQ1y1ZXkg8tkZU-425" value="" style="shape=partialRectangle;html=1;whiteSpace=wrap;connectable=0;strokeColor=inherit;overflow=hidden;fillColor=none;top=0;left=0;bottom=0;right=0;pointerEvents=1;fontSize=16;" vertex="1" parent="jbtqDZHQ1y1ZXkg8tkZU-424">
          <mxGeometry width="11" height="2" as="geometry">
            <mxRectangle width="11" height="2" as="alternateBounds" />
          </mxGeometry>
        </mxCell>
        <mxCell id="jbtqDZHQ1y1ZXkg8tkZU-426" value="" style="shape=partialRectangle;html=1;whiteSpace=wrap;connectable=0;strokeColor=inherit;overflow=hidden;fillColor=none;top=0;left=0;bottom=0;right=0;pointerEvents=1;fontSize=16;" vertex="1" parent="jbtqDZHQ1y1ZXkg8tkZU-424">
          <mxGeometry x="11" width="9" height="2" as="geometry">
            <mxRectangle width="9" height="2" as="alternateBounds" />
          </mxGeometry>
        </mxCell>
        <mxCell id="jbtqDZHQ1y1ZXkg8tkZU-427" value="" style="shape=partialRectangle;html=1;whiteSpace=wrap;connectable=0;strokeColor=inherit;overflow=hidden;fillColor=none;top=0;left=0;bottom=0;right=0;pointerEvents=1;fontSize=16;" vertex="1" parent="jbtqDZHQ1y1ZXkg8tkZU-424">
          <mxGeometry x="20" width="11" height="2" as="geometry">
            <mxRectangle width="11" height="2" as="alternateBounds" />
          </mxGeometry>
        </mxCell>
        <mxCell id="jbtqDZHQ1y1ZXkg8tkZU-428" value="" style="shape=tableRow;horizontal=0;startSize=0;swimlaneHead=0;swimlaneBody=0;strokeColor=inherit;top=0;left=0;bottom=0;right=0;collapsible=0;dropTarget=0;fillColor=none;points=[[0,0.5],[1,0.5]];portConstraint=eastwest;fontSize=16;" vertex="1" parent="jbtqDZHQ1y1ZXkg8tkZU-423">
          <mxGeometry y="22" width="30.565384615384612" height="1" as="geometry" />
        </mxCell>
        <mxCell id="jbtqDZHQ1y1ZXkg8tkZU-429" value="" style="shape=partialRectangle;html=1;whiteSpace=wrap;connectable=0;strokeColor=inherit;overflow=hidden;fillColor=none;top=0;left=0;bottom=0;right=0;pointerEvents=1;fontSize=16;" vertex="1" parent="jbtqDZHQ1y1ZXkg8tkZU-428">
          <mxGeometry width="11" height="1" as="geometry">
            <mxRectangle width="11" height="1" as="alternateBounds" />
          </mxGeometry>
        </mxCell>
        <mxCell id="jbtqDZHQ1y1ZXkg8tkZU-430" value="" style="shape=partialRectangle;html=1;whiteSpace=wrap;connectable=0;strokeColor=inherit;overflow=hidden;fillColor=none;top=0;left=0;bottom=0;right=0;pointerEvents=1;fontSize=16;" vertex="1" parent="jbtqDZHQ1y1ZXkg8tkZU-428">
          <mxGeometry x="11" width="9" height="1" as="geometry">
            <mxRectangle width="9" height="1" as="alternateBounds" />
          </mxGeometry>
        </mxCell>
        <mxCell id="jbtqDZHQ1y1ZXkg8tkZU-431" value="" style="shape=partialRectangle;html=1;whiteSpace=wrap;connectable=0;strokeColor=inherit;overflow=hidden;fillColor=none;top=0;left=0;bottom=0;right=0;pointerEvents=1;fontSize=16;" vertex="1" parent="jbtqDZHQ1y1ZXkg8tkZU-428">
          <mxGeometry x="20" width="11" height="1" as="geometry">
            <mxRectangle width="11" height="1" as="alternateBounds" />
          </mxGeometry>
        </mxCell>
        <mxCell id="jbtqDZHQ1y1ZXkg8tkZU-432" value="" style="shape=tableRow;horizontal=0;startSize=0;swimlaneHead=0;swimlaneBody=0;strokeColor=inherit;top=0;left=0;bottom=0;right=0;collapsible=0;dropTarget=0;fillColor=none;points=[[0,0.5],[1,0.5]];portConstraint=eastwest;fontSize=16;" vertex="1" parent="jbtqDZHQ1y1ZXkg8tkZU-423">
          <mxGeometry y="23" width="30.565384615384612" height="2" as="geometry" />
        </mxCell>
        <mxCell id="jbtqDZHQ1y1ZXkg8tkZU-433" value="" style="shape=partialRectangle;html=1;whiteSpace=wrap;connectable=0;strokeColor=inherit;overflow=hidden;fillColor=none;top=0;left=0;bottom=0;right=0;pointerEvents=1;fontSize=16;" vertex="1" parent="jbtqDZHQ1y1ZXkg8tkZU-432">
          <mxGeometry width="11" height="2" as="geometry">
            <mxRectangle width="11" height="2" as="alternateBounds" />
          </mxGeometry>
        </mxCell>
        <mxCell id="jbtqDZHQ1y1ZXkg8tkZU-434" value="" style="shape=partialRectangle;html=1;whiteSpace=wrap;connectable=0;strokeColor=inherit;overflow=hidden;fillColor=none;top=0;left=0;bottom=0;right=0;pointerEvents=1;fontSize=16;" vertex="1" parent="jbtqDZHQ1y1ZXkg8tkZU-432">
          <mxGeometry x="11" width="9" height="2" as="geometry">
            <mxRectangle width="9" height="2" as="alternateBounds" />
          </mxGeometry>
        </mxCell>
        <mxCell id="jbtqDZHQ1y1ZXkg8tkZU-435" value="" style="shape=partialRectangle;html=1;whiteSpace=wrap;connectable=0;strokeColor=inherit;overflow=hidden;fillColor=none;top=0;left=0;bottom=0;right=0;pointerEvents=1;fontSize=16;" vertex="1" parent="jbtqDZHQ1y1ZXkg8tkZU-432">
          <mxGeometry x="20" width="11" height="2" as="geometry">
            <mxRectangle width="11" height="2" as="alternateBounds" />
          </mxGeometry>
        </mxCell>
        <mxCell id="jbtqDZHQ1y1ZXkg8tkZU-436" style="edgeStyle=orthogonalEdgeStyle;rounded=1;orthogonalLoop=1;jettySize=auto;html=1;entryX=1;entryY=0;entryDx=0;entryDy=0;sketch=1;curveFitting=1;jiggle=2;" edge="1" parent="jbtqDZHQ1y1ZXkg8tkZU-309" source="jbtqDZHQ1y1ZXkg8tkZU-437" target="jbtqDZHQ1y1ZXkg8tkZU-371">
          <mxGeometry relative="1" as="geometry">
            <Array as="points">
              <mxPoint x="175.84615384615384" y="80" />
              <mxPoint x="175.84615384615384" y="92.3076923076923" />
              <mxPoint x="175.84615384615384" y="92.3076923076923" />
            </Array>
          </mxGeometry>
        </mxCell>
        <mxCell id="jbtqDZHQ1y1ZXkg8tkZU-437" value="BREW" style="shape=table;startSize=20;container=1;collapsible=0;childLayout=tableLayout;strokeColor=default;fontSize=7;sketch=1;curveFitting=1;jiggle=2;fontFamily=Times New Roman;" vertex="1" parent="jbtqDZHQ1y1ZXkg8tkZU-309">
          <mxGeometry x="186.9230769230769" y="67.6923076923077" width="30.565384615384612" height="24.615384615384613" as="geometry" />
        </mxCell>
        <mxCell id="jbtqDZHQ1y1ZXkg8tkZU-438" value="" style="shape=tableRow;horizontal=0;startSize=0;swimlaneHead=0;swimlaneBody=0;strokeColor=inherit;top=0;left=0;bottom=0;right=0;collapsible=0;dropTarget=0;fillColor=none;points=[[0,0.5],[1,0.5]];portConstraint=eastwest;fontSize=16;" vertex="1" parent="jbtqDZHQ1y1ZXkg8tkZU-437">
          <mxGeometry y="20" width="30.565384615384612" height="2" as="geometry" />
        </mxCell>
        <mxCell id="jbtqDZHQ1y1ZXkg8tkZU-439" value="" style="shape=partialRectangle;html=1;whiteSpace=wrap;connectable=0;strokeColor=inherit;overflow=hidden;fillColor=none;top=0;left=0;bottom=0;right=0;pointerEvents=1;fontSize=16;" vertex="1" parent="jbtqDZHQ1y1ZXkg8tkZU-438">
          <mxGeometry width="11" height="2" as="geometry">
            <mxRectangle width="11" height="2" as="alternateBounds" />
          </mxGeometry>
        </mxCell>
        <mxCell id="jbtqDZHQ1y1ZXkg8tkZU-440" value="" style="shape=partialRectangle;html=1;whiteSpace=wrap;connectable=0;strokeColor=inherit;overflow=hidden;fillColor=none;top=0;left=0;bottom=0;right=0;pointerEvents=1;fontSize=16;" vertex="1" parent="jbtqDZHQ1y1ZXkg8tkZU-438">
          <mxGeometry x="11" width="9" height="2" as="geometry">
            <mxRectangle width="9" height="2" as="alternateBounds" />
          </mxGeometry>
        </mxCell>
        <mxCell id="jbtqDZHQ1y1ZXkg8tkZU-441" value="" style="shape=partialRectangle;html=1;whiteSpace=wrap;connectable=0;strokeColor=inherit;overflow=hidden;fillColor=none;top=0;left=0;bottom=0;right=0;pointerEvents=1;fontSize=16;" vertex="1" parent="jbtqDZHQ1y1ZXkg8tkZU-438">
          <mxGeometry x="20" width="11" height="2" as="geometry">
            <mxRectangle width="11" height="2" as="alternateBounds" />
          </mxGeometry>
        </mxCell>
        <mxCell id="jbtqDZHQ1y1ZXkg8tkZU-442" value="" style="shape=tableRow;horizontal=0;startSize=0;swimlaneHead=0;swimlaneBody=0;strokeColor=inherit;top=0;left=0;bottom=0;right=0;collapsible=0;dropTarget=0;fillColor=none;points=[[0,0.5],[1,0.5]];portConstraint=eastwest;fontSize=16;" vertex="1" parent="jbtqDZHQ1y1ZXkg8tkZU-437">
          <mxGeometry y="22" width="30.565384615384612" height="1" as="geometry" />
        </mxCell>
        <mxCell id="jbtqDZHQ1y1ZXkg8tkZU-443" value="" style="shape=partialRectangle;html=1;whiteSpace=wrap;connectable=0;strokeColor=inherit;overflow=hidden;fillColor=none;top=0;left=0;bottom=0;right=0;pointerEvents=1;fontSize=16;" vertex="1" parent="jbtqDZHQ1y1ZXkg8tkZU-442">
          <mxGeometry width="11" height="1" as="geometry">
            <mxRectangle width="11" height="1" as="alternateBounds" />
          </mxGeometry>
        </mxCell>
        <mxCell id="jbtqDZHQ1y1ZXkg8tkZU-444" value="" style="shape=partialRectangle;html=1;whiteSpace=wrap;connectable=0;strokeColor=inherit;overflow=hidden;fillColor=none;top=0;left=0;bottom=0;right=0;pointerEvents=1;fontSize=16;" vertex="1" parent="jbtqDZHQ1y1ZXkg8tkZU-442">
          <mxGeometry x="11" width="9" height="1" as="geometry">
            <mxRectangle width="9" height="1" as="alternateBounds" />
          </mxGeometry>
        </mxCell>
        <mxCell id="jbtqDZHQ1y1ZXkg8tkZU-445" value="" style="shape=partialRectangle;html=1;whiteSpace=wrap;connectable=0;strokeColor=inherit;overflow=hidden;fillColor=none;top=0;left=0;bottom=0;right=0;pointerEvents=1;fontSize=16;" vertex="1" parent="jbtqDZHQ1y1ZXkg8tkZU-442">
          <mxGeometry x="20" width="11" height="1" as="geometry">
            <mxRectangle width="11" height="1" as="alternateBounds" />
          </mxGeometry>
        </mxCell>
        <mxCell id="jbtqDZHQ1y1ZXkg8tkZU-446" value="" style="shape=tableRow;horizontal=0;startSize=0;swimlaneHead=0;swimlaneBody=0;strokeColor=inherit;top=0;left=0;bottom=0;right=0;collapsible=0;dropTarget=0;fillColor=none;points=[[0,0.5],[1,0.5]];portConstraint=eastwest;fontSize=16;" vertex="1" parent="jbtqDZHQ1y1ZXkg8tkZU-437">
          <mxGeometry y="23" width="30.565384615384612" height="2" as="geometry" />
        </mxCell>
        <mxCell id="jbtqDZHQ1y1ZXkg8tkZU-447" value="" style="shape=partialRectangle;html=1;whiteSpace=wrap;connectable=0;strokeColor=inherit;overflow=hidden;fillColor=none;top=0;left=0;bottom=0;right=0;pointerEvents=1;fontSize=16;" vertex="1" parent="jbtqDZHQ1y1ZXkg8tkZU-446">
          <mxGeometry width="11" height="2" as="geometry">
            <mxRectangle width="11" height="2" as="alternateBounds" />
          </mxGeometry>
        </mxCell>
        <mxCell id="jbtqDZHQ1y1ZXkg8tkZU-448" value="" style="shape=partialRectangle;html=1;whiteSpace=wrap;connectable=0;strokeColor=inherit;overflow=hidden;fillColor=none;top=0;left=0;bottom=0;right=0;pointerEvents=1;fontSize=16;" vertex="1" parent="jbtqDZHQ1y1ZXkg8tkZU-446">
          <mxGeometry x="11" width="9" height="2" as="geometry">
            <mxRectangle width="9" height="2" as="alternateBounds" />
          </mxGeometry>
        </mxCell>
        <mxCell id="jbtqDZHQ1y1ZXkg8tkZU-449" value="" style="shape=partialRectangle;html=1;whiteSpace=wrap;connectable=0;strokeColor=inherit;overflow=hidden;fillColor=none;top=0;left=0;bottom=0;right=0;pointerEvents=1;fontSize=16;" vertex="1" parent="jbtqDZHQ1y1ZXkg8tkZU-446">
          <mxGeometry x="20" width="11" height="2" as="geometry">
            <mxRectangle width="11" height="2" as="alternateBounds" />
          </mxGeometry>
        </mxCell>
        <mxCell id="jbtqDZHQ1y1ZXkg8tkZU-450" style="edgeStyle=orthogonalEdgeStyle;rounded=0;orthogonalLoop=1;jettySize=auto;html=1;exitX=1;exitY=0.5;exitDx=0;exitDy=0;entryX=0;entryY=0.5;entryDx=0;entryDy=0;sketch=1;curveFitting=1;jiggle=2;" edge="1" parent="jbtqDZHQ1y1ZXkg8tkZU-309" source="jbtqDZHQ1y1ZXkg8tkZU-362" target="jbtqDZHQ1y1ZXkg8tkZU-442">
          <mxGeometry relative="1" as="geometry" />
        </mxCell>
        <mxCell id="jbtqDZHQ1y1ZXkg8tkZU-451" value="INVENTORY" style="text;strokeColor=none;align=center;fillColor=none;html=1;verticalAlign=middle;whiteSpace=wrap;rounded=0;fontFamily=Times New Roman;" vertex="1" parent="jbtqDZHQ1y1ZXkg8tkZU-309">
          <mxGeometry x="41.08846153846155" y="49.230769230769226" width="41.53846153846154" height="18.461538461538463" as="geometry" />
        </mxCell>
        <mxCell id="jbtqDZHQ1y1ZXkg8tkZU-452" value="BREWING" style="text;strokeColor=none;align=center;fillColor=none;html=1;verticalAlign=middle;whiteSpace=wrap;rounded=0;fontFamily=Times New Roman;" vertex="1" parent="jbtqDZHQ1y1ZXkg8tkZU-309">
          <mxGeometry x="159.23076923076923" y="49.230769230769226" width="41.53846153846154" height="18.461538461538463" as="geometry" />
        </mxCell>
        <mxCell id="jbtqDZHQ1y1ZXkg8tkZU-453" value="&lt;font face=&quot;Times New Roman&quot;&gt;STOCK&lt;/font&gt;" style="text;strokeColor=none;align=center;fillColor=none;html=1;verticalAlign=middle;whiteSpace=wrap;rounded=0;" vertex="1" parent="jbtqDZHQ1y1ZXkg8tkZU-309">
          <mxGeometry x="276.473076923077" y="49.230769230769226" width="41.53846153846154" height="18.461538461538463" as="geometry" />
        </mxCell>
        <mxCell id="jbtqDZHQ1y1ZXkg8tkZU-599" value="" style="html=1;shadow=0;dashed=0;align=center;verticalAlign=middle;shape=mxgraph.arrows2.stripedArrow;dy=0.6;dx=40;notch=25;fillColor=#f5f5f5;strokeColor=#666666;gradientDirection=east;gradientColor=#b3b3b3;sketch=1;curveFitting=1;jiggle=2;" vertex="1" parent="jbtqDZHQ1y1ZXkg8tkZU-309">
          <mxGeometry x="-69.18" y="52.97" width="69.18" height="72.52" as="geometry" />
        </mxCell>
      </root>
    </mxGraphModel>
  </diagram>
</mxfile>
